<?xml version="1.0" encoding="UTF-8"?>
<svg version="1.1" xmlns="http://www.w3.org/2000/svg" width="512" height="512">
<path d="M0 0 C89.76 0 179.52 0 272 0 C272.0825 37.24875 272.165 74.4975 272.25 112.875 C272.28641602 124.63495605 272.32283203 136.39491211 272.36035156 148.51123047 C272.37841797 162.87524414 272.37841797 162.87524414 272.3817749 169.60037231 C272.38550043 174.29584315 272.40048606 178.99113296 272.42230225 183.68655396 C272.44977884 189.67981834 272.45795719 195.67282022 272.4522891 201.66614175 C272.45347399 203.863199 272.46138216 206.06026562 272.47686052 208.25726867 C272.49683918 211.23172716 272.49193107 214.20517388 272.48101807 217.17965698 C272.49266872 218.03352556 272.50431938 218.88739414 272.51632309 219.76713753 C272.42891553 228.66749603 269.55887264 236.09257896 263.26953125 242.4296875 C254.75101238 248.32374014 247.13932381 248.5114563 236.9375 248.25 C235.58140675 248.22989291 234.22528453 248.21164961 232.86914062 248.1953125 C229.57867514 248.14847313 226.28972165 248.08288862 223 248 C223.33 248.99 223.66 249.98 224 251 C224.11031423 253.3642929 224.15910115 255.73159132 224.17700195 258.09838867 C224.18357315 258.8174942 224.19014435 259.53659973 224.19691467 260.27749634 C224.21662561 262.65765492 224.22830702 265.03775039 224.23828125 267.41796875 C224.24235678 268.2326745 224.2464323 269.04738026 224.25063133 269.88677406 C224.27148544 274.20128754 224.28578844 278.5157693 224.29516602 282.83032227 C224.30621249 287.27445116 224.34059356 291.71807688 224.38033772 296.16202831 C224.40655839 299.58941033 224.4148628 303.01667362 224.41844749 306.44414711 C224.42330156 308.08151957 224.43488178 309.71888715 224.45348549 311.35616112 C224.57168636 322.45084832 223.96935122 330.44642942 216 339 C206.96982495 345.99698346 198.43564569 349.07752285 187 348 C177.91701629 346.44372553 169.55849218 341.84065812 164 334.375 C160.74986087 328.89039022 159.74911638 325.11907533 159.74121094 318.70288086 C159.73595398 317.62877708 159.73595398 317.62877708 159.73059082 316.53297424 C159.72182102 314.17683081 159.7276051 311.82098999 159.734375 309.46484375 C159.73302713 307.82247358 159.73108558 306.18010379 159.72857666 304.53773499 C159.72563197 301.10055736 159.72990251 297.66348386 159.73925781 294.22631836 C159.75066099 289.82235155 159.74408332 285.41862829 159.73211288 281.01467037 C159.72488427 277.62518988 159.72718666 274.2357671 159.73236847 270.84628487 C159.73370173 269.22238702 159.73206859 267.59848392 159.72740936 265.97459221 C159.72232665 263.70549518 159.73007826 261.43679231 159.74121094 259.16772461 C159.74280212 257.87708603 159.74439331 256.58644745 159.74603271 255.25669861 C160 252 160 252 162 248 C144.84 248 127.68 248 110 248 C110.66 249.32 111.32 250.64 112 252 C112.26742554 255.23651123 112.26742554 255.23651123 112.29052734 259.12011719 C112.29724457 259.82961517 112.30396179 260.53911316 112.31088257 261.27011108 C112.32985722 263.6124373 112.33378688 265.95447673 112.3359375 268.296875 C112.34236735 269.93109249 112.34909585 271.56530883 112.35610962 273.19952393 C112.36808215 276.62588161 112.37179063 280.0521385 112.37060547 283.47851562 C112.37040263 287.85427649 112.39766766 292.22938529 112.43214989 296.60499191 C112.45446848 299.98178025 112.45844145 303.35841312 112.45738602 306.73526764 C112.45973594 308.34750865 112.46852504 309.95975434 112.48405075 311.5719223 C112.58010482 322.57946365 111.90329907 330.51732374 104 339 C94.96982495 345.99698346 86.43564569 349.07752285 75 348 C65.91701629 346.44372553 57.55849218 341.84065812 52 334.375 C48.72327841 328.84553232 47.75005239 325.06660063 47.75708008 318.59521484 C47.75518173 317.8677858 47.75328339 317.14035675 47.75132751 316.3908844 C47.74763656 313.99745753 47.75829852 311.60433719 47.76953125 309.2109375 C47.77072396 307.5437524 47.77117602 305.87656661 47.7709198 304.2093811 C47.77248168 300.72092462 47.78074995 297.23257119 47.79418945 293.74414062 C47.8112052 289.27062912 47.81500285 284.79723049 47.81424427 280.32369041 C47.81451601 276.88364584 47.81999736 273.44362599 47.82724571 270.00358963 C47.83042914 268.35374768 47.83239903 266.70390293 47.83313942 265.05405807 C47.83530494 262.75132205 47.84405302 260.44870631 47.85473633 258.14599609 C47.85854813 256.83537201 47.86235992 255.52474792 47.86628723 254.17440796 C48 251 48 251 49 248 C48.16863525 248.02094727 47.33727051 248.04189453 46.48071289 248.06347656 C43.35526734 248.1322107 40.23021079 248.1820689 37.10424805 248.21972656 C35.10243949 248.24940781 33.10098081 248.30027058 31.09960938 248.3515625 C22.10531879 248.44218508 15.52713037 247.72822501 8.4765625 241.921875 C7.86554688 241.20515625 7.25453125 240.4884375 6.625 239.75 C5.99851562 239.04359375 5.37203125 238.3371875 4.7265625 237.609375 C0.39075017 231.05660885 -0.4384961 225.06794005 -0.36076355 217.42016602 C-0.3633316 216.48860184 -0.36589966 215.55703766 -0.36854553 214.59724426 C-0.37349001 211.48262015 -0.35697557 208.36848574 -0.34057617 205.25390625 C-0.33965672 202.9801383 -0.3400584 200.70636949 -0.34167194 198.43260193 C-0.3423483 192.35206916 -0.32498022 186.27171405 -0.30384064 180.19122314 C-0.28673632 174.4822942 -0.28595022 168.77340814 -0.28381348 163.06445312 C-0.26808115 146.37627862 -0.22619759 129.68813706 -0.1875 113 C-0.125625 75.71 -0.06375 38.42 0 0 Z " fill="#049E41" transform="translate(120,160)"/>
<path d="M0 0 C89.76 0 179.52 0 272 0 C272 26.4 272 52.8 272 80 C248.784328 90.4470524 248.784328 90.4470524 239.125 93.25 C238.03550049 93.57444092 236.94600098 93.89888184 235.82348633 94.2331543 C203.94878805 103.54973217 171.5480468 107.38761853 138.38696289 107.26074219 C135.06833595 107.25001886 131.7502514 107.26071595 128.43164062 107.2734375 C108.54288995 107.28851693 88.98755425 105.96907097 69.4375 102.25 C68.3948851 102.05491852 68.3948851 102.05491852 67.33120728 101.855896 C43.445008 97.37229247 22.12190213 90.05541006 0 80 C0 53.6 0 27.2 0 0 Z " fill="#1CB61C" transform="translate(120,160)"/>
<path d="M0 0 C4.47924185 2.05992421 6.79650678 7.1177478 9.32543945 11.14697266 C10.63617623 13.15769 11.94737286 15.16810766 13.2590332 17.17822266 C13.88793457 18.15791016 14.51683594 19.13759766 15.16479492 20.14697266 C17.48097005 23.7140217 19.9187391 27.18497995 22.38793945 30.64697266 C25.95043945 35.6594036 25.95043945 35.6594036 25.95043945 37.89697266 C26.8012207 37.58244141 27.65200195 37.26791016 28.52856445 36.94384766 C65.67746506 23.82317212 106.75930171 24.41427083 143.95043945 36.89697266 C144.61043945 37.22697266 145.27043945 37.55697266 145.95043945 37.89697266 C146.16700195 37.23439453 146.38356445 36.57181641 146.60668945 35.88916016 C148.40475728 31.88532307 150.87459023 28.56090261 153.45043945 25.02197266 C156.66440052 20.57955778 159.84051026 16.1516822 162.7199707 11.48291016 C163.36579102 10.45012939 163.36579102 10.45012939 164.0246582 9.39648438 C164.83105084 8.09436377 165.61988409 6.7811502 166.38793945 5.45605469 C168.54226701 2.01574476 169.63341872 0.98128668 173.62231445 -0.07958984 C176.95043945 -0.10302734 176.95043945 -0.10302734 178.88793945 1.02197266 C180.31406287 3.53866105 180.23523852 5.02169743 179.95043945 7.89697266 C178.60864258 10.38549805 178.60864258 10.38549805 176.73168945 12.99462891 C176.04977539 13.95618896 175.36786133 14.91774902 174.6652832 15.90844727 C173.93438477 16.91528564 173.20348633 17.92212402 172.45043945 18.95947266 C170.98088704 21.02400589 169.51212912 23.0891049 168.04418945 25.15478516 C167.33649414 26.14381836 166.62879883 27.13285156 165.8996582 28.15185547 C162.46511378 32.98878151 159.1964338 37.93188262 155.95043945 42.89697266 C156.8012207 43.15220703 157.65200195 43.40744141 158.52856445 43.67041016 C168.74719486 47.33325256 177.82583566 53.82157267 185.95043945 60.89697266 C186.7702832 61.59564453 187.59012695 62.29431641 188.43481445 63.01416016 C205.50464841 77.91050594 218.8819746 96.31449724 224.38793945 118.52197266 C224.63411011 119.48744019 224.63411011 119.48744019 224.88525391 120.47241211 C226.37613729 127.18263879 225.95043945 132.63464485 225.95043945 139.89697266 C133.55043945 139.89697266 41.15043945 139.89697266 -54.04956055 139.89697266 C-54.04956055 111.46781278 -42.86167863 88.94023212 -23.04956055 68.89697266 C-14.00504579 60.07857077 -4.49449698 53.18086899 6.45043945 46.95947266 C7.51137817 46.35607056 7.51137817 46.35607056 8.59375 45.74047852 C13.70041648 42.89697266 13.70041648 42.89697266 15.95043945 42.89697266 C14.32477813 40.50848864 12.69863163 38.12033773 11.07177734 35.73266602 C9.69587356 33.71229171 8.32136795 31.69096455 6.94824219 29.66870117 C3.99097952 25.32023898 1.03448264 20.97711981 -2.04956055 16.71728516 C-2.46987549 16.13229248 -2.89019043 15.5472998 -3.32324219 14.94458008 C-4.40943835 13.44186061 -5.50832489 11.94833671 -6.6081543 10.45556641 C-8.20485009 7.6213232 -8.45548496 6.09499875 -8.04956055 2.89697266 C-6.1370718 -0.47800749 -3.69531708 -0.61405579 0 0 Z M13.07543945 79.08447266 C11.46605598 83.10793134 11.29364881 86.62405881 11.95043945 90.89697266 C14.16539882 95.78834127 17.07450033 98.14238184 21.8684082 100.26806641 C25.24818156 101.28897355 27.59928784 100.88990647 30.95043945 99.89697266 C35.25872816 97.57712489 38.11346708 95.48940358 39.95043945 90.89697266 C40.66106139 86.15949308 40.42133346 82.83876067 38.26293945 78.52197266 C35.25139333 75.10346084 33.23817212 73.20736855 28.6184082 72.58056641 C21.70970219 72.25947212 17.68385997 73.70798206 13.07543945 79.08447266 Z M133.07543945 79.08447266 C131.46605598 83.10793134 131.29364881 86.62405881 131.95043945 90.89697266 C134.16539882 95.78834127 137.07450033 98.14238184 141.8684082 100.26806641 C145.24818156 101.28897355 147.59928784 100.88990647 150.95043945 99.89697266 C155.25872816 97.57712489 158.11346708 95.48940358 159.95043945 90.89697266 C160.66106139 86.15949308 160.42133346 82.83876067 158.26293945 78.52197266 C155.25139333 75.10346084 153.23817212 73.20736855 148.6184082 72.58056641 C141.70970219 72.25947212 137.68385997 73.70798206 133.07543945 79.08447266 Z " fill="#1CB71C" transform="translate(170.049560546875,4.10302734375)"/>
<path d="M0 0 C5.31169505 4.52966729 9.63773164 10.42006205 10.30303097 17.51592541 C10.31000673 19.03814189 10.31000673 19.03814189 10.31712341 20.59111023 C10.32709854 21.76151352 10.33707367 22.93191681 10.34735107 24.13778687 C10.34801575 25.41320343 10.34868042 26.68862 10.34936523 28.00268555 C10.35699125 29.36649528 10.36541951 30.73030072 10.37458801 32.09410095 C10.39650093 35.79271382 10.40532799 39.49124402 10.41041446 43.18991446 C10.41406293 45.50417602 10.42030564 47.8184161 10.42741585 50.13266945 C10.45190271 58.21662975 10.46495983 66.300526 10.46850586 74.38452148 C10.47213684 81.9025777 10.50200245 89.4202246 10.54391044 96.93815583 C10.57868909 103.40546482 10.59405563 109.87263871 10.59475189 116.3400405 C10.59554237 120.19695969 10.60417392 124.05346204 10.63274956 127.91028404 C10.65905971 131.5425499 10.66106456 135.17405727 10.64509392 138.8063755 C10.64243481 140.76061424 10.66437649 142.71483906 10.68728638 144.66894531 C10.61261365 153.72806802 8.66113566 160.22289223 2.97265625 167.328125 C-5.7730005 174.94316453 -14.08345637 177.45038163 -25.66015625 177.05859375 C-34.68392023 176.19256901 -41.69145704 172.56578583 -47.71875 165.75 C-51.93723252 160.336451 -54.20143826 155.86710544 -54.22445679 148.87980652 C-54.23298676 147.70651291 -54.24151672 146.5332193 -54.25030518 145.32437134 C-54.2493988 144.04581268 -54.24849243 142.76725403 -54.24755859 141.44995117 C-54.25354637 140.08289728 -54.26035249 138.71584676 -54.26791382 137.34880066 C-54.28555697 133.64204809 -54.29026851 129.9353879 -54.29154539 126.2285974 C-54.29296864 123.91033138 -54.29724156 121.59208872 -54.30253983 119.27382851 C-54.32103538 111.17920063 -54.32921114 103.08463855 -54.32763672 94.98999023 C-54.32643583 87.45604753 -54.34752886 79.92239155 -54.37912405 72.38852137 C-54.40531654 65.9110531 -54.41600275 59.4336783 -54.4147259 52.95615751 C-54.41421708 49.09154602 -54.41985522 45.22718937 -54.441082 41.36263084 C-54.4605145 37.72552242 -54.4605552 34.08891056 -54.44604874 30.45178413 C-54.44297667 28.49002794 -54.45960249 26.52827144 -54.47692871 24.56658936 C-54.41248972 15.48908508 -52.76415312 9.17151551 -46.5625 2.1875 C-33.05183046 -9.97538986 -14.64204574 -10.41788033 0 0 Z " fill="#1CB71C" transform="translate(469.95703125,170.2578125)"/>
<path d="M0 0 C5.31169505 4.52966729 9.63773164 10.42006205 10.30303097 17.51592541 C10.31000673 19.03814189 10.31000673 19.03814189 10.31712341 20.59111023 C10.32709854 21.76151352 10.33707367 22.93191681 10.34735107 24.13778687 C10.34801575 25.41320343 10.34868042 26.68862 10.34936523 28.00268555 C10.35699125 29.36649528 10.36541951 30.73030072 10.37458801 32.09410095 C10.39650093 35.79271382 10.40532799 39.49124402 10.41041446 43.18991446 C10.41406293 45.50417602 10.42030564 47.8184161 10.42741585 50.13266945 C10.45190271 58.21662975 10.46495983 66.300526 10.46850586 74.38452148 C10.47213684 81.9025777 10.50200245 89.4202246 10.54391044 96.93815583 C10.57868909 103.40546482 10.59405563 109.87263871 10.59475189 116.3400405 C10.59554237 120.19695969 10.60417392 124.05346204 10.63274956 127.91028404 C10.65905971 131.5425499 10.66106456 135.17405727 10.64509392 138.8063755 C10.64243481 140.76061424 10.66437649 142.71483906 10.68728638 144.66894531 C10.61261365 153.72806802 8.66113566 160.22289223 2.97265625 167.328125 C-5.7730005 174.94316453 -14.08345637 177.45038163 -25.66015625 177.05859375 C-34.68392023 176.19256901 -41.69145704 172.56578583 -47.71875 165.75 C-51.93723252 160.336451 -54.20143826 155.86710544 -54.22445679 148.87980652 C-54.23298676 147.70651291 -54.24151672 146.5332193 -54.25030518 145.32437134 C-54.2493988 144.04581268 -54.24849243 142.76725403 -54.24755859 141.44995117 C-54.25354637 140.08289728 -54.26035249 138.71584676 -54.26791382 137.34880066 C-54.28555697 133.64204809 -54.29026851 129.9353879 -54.29154539 126.2285974 C-54.29296864 123.91033138 -54.29724156 121.59208872 -54.30253983 119.27382851 C-54.32103538 111.17920063 -54.32921114 103.08463855 -54.32763672 94.98999023 C-54.32643583 87.45604753 -54.34752886 79.92239155 -54.37912405 72.38852137 C-54.40531654 65.9110531 -54.41600275 59.4336783 -54.4147259 52.95615751 C-54.41421708 49.09154602 -54.41985522 45.22718937 -54.441082 41.36263084 C-54.4605145 37.72552242 -54.4605552 34.08891056 -54.44604874 30.45178413 C-54.44297667 28.49002794 -54.45960249 26.52827144 -54.47692871 24.56658936 C-54.41248972 15.48908508 -52.76415312 9.17151551 -46.5625 2.1875 C-33.05183046 -9.97538986 -14.64204574 -10.41788033 0 0 Z " fill="#1CB71C" transform="translate(85.95703125,170.2578125)"/>
<path d="M0 0 C4.47924185 2.05992421 6.79650678 7.1177478 9.32543945 11.14697266 C10.63617623 13.15769 11.94737286 15.16810766 13.2590332 17.17822266 C13.88793457 18.15791016 14.51683594 19.13759766 15.16479492 20.14697266 C17.48097005 23.7140217 19.9187391 27.18497995 22.38793945 30.64697266 C25.95043945 35.6594036 25.95043945 35.6594036 25.95043945 37.89697266 C26.8012207 37.58244141 27.65200195 37.26791016 28.52856445 36.94384766 C65.67746506 23.82317212 106.75930171 24.41427083 143.95043945 36.89697266 C144.61043945 37.22697266 145.27043945 37.55697266 145.95043945 37.89697266 C146.16700195 37.23439453 146.38356445 36.57181641 146.60668945 35.88916016 C148.40475728 31.88532307 150.87459023 28.56090261 153.45043945 25.02197266 C156.66440052 20.57955778 159.84051026 16.1516822 162.7199707 11.48291016 C163.36579102 10.45012939 163.36579102 10.45012939 164.0246582 9.39648438 C164.83105084 8.09436377 165.61988409 6.7811502 166.38793945 5.45605469 C168.54226701 2.01574476 169.63341872 0.98128668 173.62231445 -0.07958984 C176.95043945 -0.10302734 176.95043945 -0.10302734 178.88793945 1.02197266 C180.31406287 3.53866105 180.23523852 5.02169743 179.95043945 7.89697266 C178.60864258 10.38549805 178.60864258 10.38549805 176.73168945 12.99462891 C176.04977539 13.95618896 175.36786133 14.91774902 174.6652832 15.90844727 C173.93438477 16.91528564 173.20348633 17.92212402 172.45043945 18.95947266 C170.98088704 21.02400589 169.51212912 23.0891049 168.04418945 25.15478516 C167.33649414 26.14381836 166.62879883 27.13285156 165.8996582 28.15185547 C162.46511378 32.98878151 159.1964338 37.93188262 155.95043945 42.89697266 C156.8012207 43.15220703 157.65200195 43.40744141 158.52856445 43.67041016 C168.74719486 47.33325256 177.82583566 53.82157267 185.95043945 60.89697266 C186.7702832 61.59564453 187.59012695 62.29431641 188.43481445 63.01416016 C202.36680684 75.1722032 212.9740108 88.71883175 219.95043945 105.89697266 C215.68535374 105.89697266 212.95958656 103.59331674 209.45043945 101.39697266 C200.33125393 95.86401688 190.88453095 91.73156696 180.95043945 87.89697266 C180.26723633 87.62981445 179.5840332 87.36265625 178.88012695 87.08740234 C170.81646057 83.88672576 170.81646057 83.88672576 162.32543945 82.45947266 C158.95043945 81.89697266 158.95043945 81.89697266 156.70043945 78.95947266 C156.12293945 77.94884766 155.54543945 76.93822266 154.95043945 75.89697266 C151.95818853 73.943247 149.54902208 73.62517862 146.01293945 73.64697266 C144.7619043 73.63923828 144.7619043 73.63923828 143.4855957 73.63134766 C140.94471373 73.73122813 140.94471373 73.73122813 138.95581055 74.99804688 C134.29220841 76.3929602 130.0754804 75.29709912 125.3293457 74.54541016 C112.96243274 72.80152868 100.80770501 72.43673225 88.33203125 72.50585938 C84.88607333 72.52198139 81.44128484 72.50587491 77.99536133 72.48681641 C65.85950503 72.47882568 54.09908798 73.04889918 42.10887146 75.02456665 C41.22329056 75.16470184 40.33770966 75.30483704 39.42529297 75.44921875 C38.65411636 75.5829892 37.88293976 75.71675964 37.08839417 75.85458374 C34.50833165 75.90573826 33.17463099 75.14579265 30.95043945 73.89697266 C25.95748623 73.18840174 22.03379588 73.34544575 17.51293945 75.64697266 C14.95259821 77.70308134 14.95259821 77.70308134 13.5402832 79.98681641 C11.61742787 82.29707748 10.87943138 82.40088244 7.95043945 82.70947266 C-10.06440129 85.72945325 -27.23468814 95.18838095 -42.6940918 104.54931641 C-45.04956055 105.89697266 -45.04956055 105.89697266 -48.04956055 106.89697266 C-39.51309579 78.598592 -14.09805171 58.08558866 10.7824707 44.47900391 C13.95043945 42.89697266 13.95043945 42.89697266 15.95043945 42.89697266 C14.32477813 40.50848864 12.69863163 38.12033773 11.07177734 35.73266602 C9.69587356 33.71229171 8.32136795 31.69096455 6.94824219 29.66870117 C3.99097952 25.32023898 1.03448264 20.97711981 -2.04956055 16.71728516 C-2.46987549 16.13229248 -2.89019043 15.5472998 -3.32324219 14.94458008 C-4.40943835 13.44186061 -5.50832489 11.94833671 -6.6081543 10.45556641 C-8.20485009 7.6213232 -8.45548496 6.09499875 -8.04956055 2.89697266 C-6.1370718 -0.47800749 -3.69531708 -0.61405579 0 0 Z " fill="#56C926" transform="translate(170.049560546875,4.10302734375)"/>
<path d="M0 0 C89.76 0 179.52 0 272 0 C272 6 272 6 270.3984375 7.72265625 C258.37332267 14.12691122 244.28281855 15.92747126 231 18 C229.6394751 18.21269531 229.6394751 18.21269531 228.25146484 18.4296875 C213.89708859 20.62411892 199.48772263 22.04618008 185 23 C183.036073 23.13245117 183.036073 23.13245117 181.0324707 23.26757812 C166.55181017 24.17395946 152.0674734 24.24223007 137.5625 24.25 C135.59568771 24.25151062 135.59568771 24.25151062 133.58914185 24.25305176 C101.46194093 24.25067097 69.33134327 23.05853488 37.6328125 17.46435547 C35.20634547 17.03639365 32.77712926 16.64021581 30.34375 16.25390625 C5.68304692 12.18945704 5.68304692 12.18945704 0 6 C0 4.02 0 2.04 0 0 Z " fill="#56C826" transform="translate(120,160)"/>
<path d="M0 0 C5.09504356 4.34491286 9.44345768 10.05266655 10.31079102 16.8371582 C11.03034139 26.70947026 11.38512557 35.43918876 5.01953125 43.5546875 C4.36726563 44.2765625 3.715 44.9984375 3.04296875 45.7421875 C2.51445312 46.4021875 1.9859375 47.0621875 1.44140625 47.7421875 C-3.90892051 53.85684666 -12.2558989 58.85100806 -20.45703125 59.4921875 C-29.141759 58.79867022 -37.28758897 53.41958733 -43.0703125 47.1640625 C-51.21378269 36.71074672 -55.0291444 28.15849236 -53.95703125 14.7421875 C-53.07182184 11.67763101 -51.79857021 9.33128188 -49.95703125 6.7421875 C-49.25578125 5.7109375 -48.55453125 4.6796875 -47.83203125 3.6171875 C-35.31442603 -10.47956176 -14.62181559 -10.40348649 0 0 Z " fill="#56C926" transform="translate(469.95703125,170.2578125)"/>
<path d="M0 0 C5.09504356 4.34491286 9.44345768 10.05266655 10.31079102 16.8371582 C11.03034139 26.70947026 11.38512557 35.43918876 5.01953125 43.5546875 C4.36726563 44.2765625 3.715 44.9984375 3.04296875 45.7421875 C2.51445313 46.4021875 1.9859375 47.0621875 1.44140625 47.7421875 C-3.90892051 53.85684666 -12.2558989 58.85100806 -20.45703125 59.4921875 C-29.141759 58.79867022 -37.28758897 53.41958733 -43.0703125 47.1640625 C-51.21378269 36.71074672 -55.0291444 28.15849236 -53.95703125 14.7421875 C-53.07182184 11.67763101 -51.79857021 9.33128188 -49.95703125 6.7421875 C-49.25578125 5.7109375 -48.55453125 4.6796875 -47.83203125 3.6171875 C-35.31442603 -10.47956176 -14.62181559 -10.40348649 0 0 Z " fill="#56C926" transform="translate(85.95703125,170.2578125)"/>
</svg>
