<?xml version="1.0" encoding="UTF-8"?>
<svg version="1.1" xmlns="http://www.w3.org/2000/svg" width="512" height="512">
<path d="M0 0 C19.46299628 16.97652061 32.41474699 38.40648767 35.0234375 64.4765625 C37.03350255 94.30126685 28.56729737 118.97879763 9.0234375 141.4765625 C0.28310073 151.31849015 -8.75490185 160.94218434 -18.7421875 169.53125 C-23.30763967 173.50606675 -27.74770657 177.61344204 -32.15429688 181.76269531 C-33.39880925 182.93317721 -34.64771706 184.09899873 -35.90039062 185.26074219 C-53.31344721 201.48929592 -60.86825392 217.89493672 -63.43359375 241.6796875 C-63.51399902 242.39350586 -63.5944043 243.10732422 -63.67724609 243.84277344 C-63.90285713 245.87559867 -64.11011463 247.91043596 -64.31640625 249.9453125 C-65.19358776 254.63745504 -66.52320816 257.43312861 -70.4140625 260.2265625 C-75.92204575 262.9133836 -81.26750651 262.69340872 -87.2890625 262.7265625 C-88.21396484 262.7471875 -89.13886719 262.7678125 -90.09179688 262.7890625 C-95.85143495 262.82181098 -99.90654249 262.27404405 -104.9765625 259.4765625 C-111.82628507 252.08607236 -110.36698445 243.85127965 -110.10839844 234.27880859 C-108.56533245 201.48008375 -91.89205746 177.3910304 -69.4140625 154.7890625 C-68.35167358 153.71954346 -68.35167358 153.71954346 -67.26782227 152.62841797 C-62.66551261 148.04050219 -57.89775082 143.71779388 -52.9765625 139.4765625 C-25.29357168 115.07970385 -25.29357168 115.07970385 -13.7578125 80.90234375 C-13.17869226 64.37328703 -19.18586846 48.14576058 -30.3515625 35.9765625 C-32.18130989 34.08379606 -34.05834082 32.28401363 -35.9765625 30.4765625 C-36.76804687 29.72761719 -37.55953125 28.97867188 -38.375 28.20703125 C-53.59911375 14.98076632 -72.83850063 11.21794694 -92.5 12.27392578 C-110.0415722 13.70920821 -126.23979487 21.21530079 -137.9765625 34.4765625 C-145.96209699 44.68222002 -150.87841479 56.27529798 -155.0390625 68.4765625 C-157.38355094 74.95000831 -160.50150015 78.87094366 -166.4765625 82.3515625 C-173.41665667 85.532439 -180.51279898 85.81507756 -187.81640625 83.625 C-195.04917707 80.42735395 -198.99285431 75.62431599 -202.3515625 68.6015625 C-205.82051202 51.2568149 -196.19723799 33.51348853 -186.921875 19.3359375 C-178.89950927 8.11050267 -168.89445269 -2.44203183 -156.9765625 -9.5234375 C-156.39487305 -9.8735791 -155.81318359 -10.2237207 -155.21386719 -10.58447266 C-109.50199194 -37.69052905 -40.97765402 -34.73958596 0 0 Z " fill="#000000" transform="translate(339.9765625,92.5234375)"/>
<path d="M0 0 C6.7918859 4.96570663 10.18182994 11.14346646 11.93359375 19.36328125 C12.63141758 27.22138441 10.62916368 34.12208312 6.03515625 40.50390625 C1.22953539 45.64297835 -5.11733936 49.12314485 -12.140625 49.75390625 C-21.46945585 49.93417351 -28.2661223 47.99422552 -35.15234375 41.51953125 C-40.28313711 35.66903384 -42.27873738 28.78928077 -42.15234375 21.1171875 C-41.3519196 13.60463516 -38.5524865 7.00190864 -32.83984375 1.98828125 C-23.08214085 -5.16477586 -10.60530298 -6.18207316 0 0 Z " fill="#000000" transform="translate(268.87890625,397.44921875)"/>
</svg>
