<?xml version="1.0" encoding="UTF-8"?>
<svg version="1.1" xmlns="http://www.w3.org/2000/svg" width="512" height="512">
<path d="M0 0 C0.80396713 -0.0049649 1.60793427 -0.00992981 2.43626404 -0.01504517 C5.08813342 -0.0296131 7.73994293 -0.03646065 10.3918457 -0.04199219 C12.24404399 -0.04774908 14.09624227 -0.05350674 15.94844055 -0.05926514 C19.83118974 -0.06976058 23.71391832 -0.07561243 27.59667969 -0.07910156 C32.55162531 -0.08457608 37.50629475 -0.10858799 42.46115398 -0.13707352 C46.28836338 -0.15577711 50.11550734 -0.16090964 53.94275856 -0.16243744 C55.76825275 -0.16544827 57.59374622 -0.17342323 59.41919518 -0.18662262 C73.93774675 -0.28408999 86.68712393 0.67122754 97.9230957 11.04785156 C101.83965888 15.29844998 104.72901855 19.79865404 106.88012695 25.16113281 C107.22244354 25.96173126 107.56476013 26.76232971 107.91744995 27.58718872 C109.25640113 32.55805293 109.14215322 37.27332773 109.10717773 42.39892578 C109.10746979 43.52146255 109.10776184 44.64399933 109.10806274 45.80055237 C109.10667223 49.50155433 109.09112382 53.20235362 109.07543945 56.90332031 C109.07170834 59.4730722 109.06886183 62.04282552 109.06686401 64.61257935 C109.06001455 70.67917295 109.04426032 76.74568323 109.02416503 82.81224549 C109.00177707 89.72155371 108.99080533 96.63086546 108.98077416 103.54020095 C108.95989321 117.74721707 108.92473535 131.95417237 108.88012695 146.16113281 C109.46266644 146.15836743 110.04520594 146.15560205 110.64539814 146.15275288 C124.86110148 146.08631806 139.07678136 146.03676748 153.29260731 146.0056963 C160.16745921 145.99026869 167.04220708 145.96925844 173.91699219 145.93481445 C180.55650781 145.90156525 187.19594409 145.88425896 193.83554649 145.87650108 C196.36356999 145.87097524 198.89158785 145.86018474 201.4195652 145.84394264 C204.97140702 145.82203815 208.5228081 145.81917138 212.07470703 145.82055664 C213.11049393 145.80977081 214.14628082 145.79898499 215.2134552 145.78787231 C227.25568855 145.83840616 238.19916807 148.9301867 247.1418457 157.27050781 C255.28798577 166.00389273 259.18573073 175.26051117 259.1706543 187.30859375 C259.17737152 188.0917395 259.18408875 188.87488525 259.19100952 189.6817627 C259.20989911 192.25307687 259.21390933 194.8241287 259.21606445 197.39550781 C259.22249942 199.19761255 259.2292283 200.99971625 259.23623657 202.80181885 C259.24818732 206.57428405 259.25191974 210.34665784 259.25073242 214.11914062 C259.25052954 218.92832336 259.27781002 223.73691316 259.31227684 228.54595566 C259.33463148 232.26770666 259.33856733 235.989317 259.33751297 239.71112823 C259.33985689 241.48277068 259.34861143 243.25441773 259.3641777 245.02599335 C259.48035282 259.61504578 257.6304582 271.72281483 247.2902832 282.87597656 C239.91336129 289.69745965 231.31857084 293.28014417 221.35912228 293.29535389 C220.70271347 293.29770612 220.04630467 293.30005835 219.37000468 293.30248186 C217.16103615 293.30916151 214.95212658 293.30871395 212.7431488 293.30830383 C211.14711275 293.31160311 209.55107753 293.31532881 207.95504338 293.31944531 C203.56150562 293.32946629 199.16798153 293.33318227 194.77443397 293.33583462 C190.03872908 293.3397374 185.30303502 293.34931579 180.56733704 293.35804749 C169.12651021 293.37781301 157.68568249 293.38787839 146.24484286 293.39677528 C140.85733568 293.40115818 135.46982948 293.406525 130.08232307 293.41176414 C112.17314451 293.42877679 94.26396656 293.44327088 76.35478115 293.45051289 C71.70689836 293.45242279 67.05901558 293.45434312 62.41113281 293.45629883 C60.67831615 293.45702444 60.67831615 293.45702444 58.91049308 293.45776471 C40.1975539 293.4660647 21.48467864 293.49140095 2.77176737 293.52387951 C-16.43975449 293.55695164 -35.65124386 293.5749618 -54.86279434 293.57815713 C-65.64959835 293.58032212 -76.43630914 293.58906917 -87.2230854 293.6146183 C-96.4098512 293.6363274 -105.59650114 293.64437467 -114.78328968 293.63465152 C-119.46921239 293.63010741 -124.15489606 293.63199959 -128.84078598 293.65141296 C-133.13493626 293.66904945 -137.4286732 293.66804302 -141.7228279 293.65251567 C-143.272024 293.65014033 -144.82124876 293.65445933 -146.37040109 293.66634432 C-159.70706211 293.76228198 -170.2380546 291.61834187 -180.11987305 282.16113281 C-186.98405268 274.65343634 -191.22367211 265.69144593 -191.26704407 255.48388672 C-191.27419937 254.32616257 -191.28135468 253.16843842 -191.28872681 251.97563171 C-191.29141571 250.7091127 -191.29410461 249.44259369 -191.296875 248.13769531 C-191.30314338 246.78713304 -191.30979051 245.43657248 -191.31678772 244.08601379 C-191.33779577 239.65273227 -191.34819089 235.21945055 -191.3581543 230.78613281 C-191.36220385 229.25595075 -191.36632083 227.72576886 -191.37050438 226.19558716 C-191.38955331 219.00132613 -191.40378182 211.80707531 -191.41211635 204.61279392 C-191.42187115 196.33075884 -191.44814569 188.04899227 -191.48861724 179.7670517 C-191.51887854 173.352397 -191.53359489 166.93781881 -191.53689736 160.52309418 C-191.53923754 156.69856335 -191.54806132 152.87431944 -191.57335854 149.04986572 C-191.59681879 145.44478943 -191.60080152 141.84018526 -191.59059715 138.23505211 C-191.58987386 136.30028074 -191.60884068 134.36553239 -191.62866211 132.43086243 C-191.55610932 120.09862514 -188.62697687 110.2474437 -180.11987305 101.16113281 C-179.59651367 100.59652344 -179.0731543 100.03191406 -178.53393555 99.45019531 C-168.42899181 89.73959085 -155.14511169 89.00096088 -141.93041992 89.04760742 C-140.29006775 89.04738838 -140.29006775 89.04738838 -138.61657715 89.04716492 C-135.02390517 89.04785819 -131.4312859 89.05562311 -127.83862305 89.06347656 C-125.33898955 89.06534282 -122.83935568 89.06676574 -120.33972168 89.06776428 C-114.4467621 89.07118438 -108.55382178 89.07905535 -102.66087008 89.08911377 C-95.28783274 89.10142318 -87.91479304 89.10676635 -80.54174805 89.11230469 C-67.40111356 89.12301313 -54.26049449 89.13987622 -41.11987305 89.16113281 C-41.1309761 88.46115173 -41.14207916 87.76117065 -41.15351868 87.03997803 C-41.25436282 80.39214349 -41.33015979 73.74452727 -41.37893391 67.09609604 C-41.40485397 63.67928774 -41.43992027 60.26311965 -41.49707031 56.84667969 C-41.56258689 52.90470467 -41.58619892 48.96297448 -41.6081543 45.02050781 C-41.63396072 43.81376404 -41.65976715 42.60702026 -41.68635559 41.3637085 C-41.69028179 29.30096616 -37.69276382 18.80260671 -29.11987305 10.16113281 C-20.19364516 2.94418261 -11.41722341 0.01697694 0 0 Z " fill="#FEC73E" transform="translate(222.119873046875,207.8388671875)"/>
<path d="M0 0 C1.66669361 -0.0001808 1.66669361 -0.0001808 3.3670578 -0.00036526 C6.94199162 0.00037749 10.51687245 0.00797657 14.09179688 0.01586914 C16.30761693 0.01734054 18.52343734 0.01836003 20.73925781 0.0189209 C28.92969282 0.02415088 37.12012038 0.03811214 45.31054688 0.05102539 C72.78304687 0.08196289 72.78304687 0.08196289 100.81054688 0.11352539 C100.81054688 67.43352539 100.81054688 134.75352539 100.81054688 204.11352539 C81.40242187 204.19602539 61.99429688 204.27852539 41.99804688 204.36352539 C32.82930786 204.41814941 32.82930786 204.41814941 23.4753418 204.47387695 C15.97131348 204.49194336 15.97131348 204.49194336 12.45063782 204.49530029 C10.00859151 204.50141476 7.56655675 204.51542507 5.12458801 204.53582764 C1.41056562 204.56528836 -2.30272324 204.56914339 -6.0168457 204.56762695 C-7.62972961 204.5892156 -7.62972961 204.5892156 -9.27519703 204.61124039 C-20.67590322 204.54931069 -29.91860311 201.02898732 -38.18945312 193.11352539 C-45.05363275 185.60582892 -49.29325219 176.64383851 -49.33662415 166.4362793 C-49.34377945 165.27855515 -49.35093475 164.12083099 -49.35830688 162.92802429 C-49.36099579 161.66150528 -49.36368469 160.39498627 -49.36645508 159.09008789 C-49.37272346 157.73952562 -49.37937059 156.38896506 -49.3863678 155.03840637 C-49.40737585 150.60512485 -49.41777097 146.17184313 -49.42773438 141.73852539 C-49.43178393 140.20834333 -49.43590091 138.67816144 -49.44008446 137.14797974 C-49.45913339 129.95371871 -49.4733619 122.75946789 -49.48169643 115.5651865 C-49.49145123 107.28315141 -49.51772576 99.00138484 -49.55819732 90.71944427 C-49.58845862 84.30478958 -49.60317497 77.89021139 -49.60647744 71.47548676 C-49.60881762 67.65095593 -49.6176414 63.82671202 -49.64293861 60.0022583 C-49.66639887 56.397182 -49.6703816 52.79257784 -49.66017723 49.18744469 C-49.65945394 47.25267332 -49.67842076 45.31792497 -49.69824219 43.383255 C-49.6256894 31.05101771 -46.69655694 21.19983628 -38.18945312 12.11352539 C-37.66609375 11.54891602 -37.14273438 10.98430664 -36.60351562 10.40258789 C-26.49855171 0.69196403 -13.2146852 -0.04659401 0 0 Z " fill="#6C68FF" transform="translate(80.189453125,296.886474609375)"/>
<path d="M0 0 C18.748125 -0.061875 37.49625 -0.12375 56.8125 -0.1875 C62.71616455 -0.21481201 68.6198291 -0.24212402 74.70239258 -0.27026367 C81.95251465 -0.28381348 81.95251465 -0.28381348 85.35453796 -0.28633118 C87.71323854 -0.29091568 90.0719324 -0.30142051 92.43058777 -0.31672668 C96.01870806 -0.33883247 99.60640143 -0.34171311 103.19458008 -0.34057617 C104.75125381 -0.35676766 104.75125381 -0.35676766 106.3393755 -0.37328625 C118.3792262 -0.32255529 129.3210943 2.77096877 138.26171875 11.109375 C146.40785882 19.84275991 150.30560378 29.09937836 150.29052734 41.14746094 C150.29724457 41.93060669 150.30396179 42.71375244 150.31088257 43.52062988 C150.32977216 46.09194406 150.33378238 48.66299589 150.3359375 51.234375 C150.34237247 53.03647973 150.34910134 54.83858344 150.35610962 56.64068604 C150.36806037 60.41315124 150.37179279 64.18552503 150.37060547 67.95800781 C150.37040258 72.76719055 150.39768306 77.57578035 150.43214989 82.38482285 C150.45450452 86.10657385 150.45844037 89.82818419 150.45738602 93.54999542 C150.45972993 95.32163787 150.46848447 97.09328492 150.48405075 98.86486053 C150.60022586 113.45391297 148.75033125 125.56168202 138.41015625 136.71484375 C131.6765486 142.94145035 123.21692738 147.12997566 114.00128174 147.12025452 C112.49423613 147.12232076 112.49423613 147.12232076 110.95674515 147.12442875 C109.85630245 147.12083064 108.75585976 147.11723253 107.62207031 147.11352539 C105.85202196 147.11370619 105.85202196 147.11370619 104.04621506 147.11389065 C100.22349925 147.11314379 96.40083209 147.10552583 92.578125 147.09765625 C90.21923852 147.09618613 87.86035172 147.09516585 85.50146484 147.09460449 C76.75097159 147.08935975 68.00048532 147.07539858 59.25 147.0625 C29.92125 147.0315625 29.92125 147.0315625 0 147 C0 98.49 0 49.98 0 0 Z " fill="#BC1111" transform="translate(331,354)"/>
</svg>
