<?xml version="1.0" encoding="UTF-8"?>
<svg version="1.1" xmlns="http://www.w3.org/2000/svg" width="512" height="512">
<path d="M0 0 C7.04413328 4.2929911 11.40463657 10.60091205 13.5625 18.5 C13.89121335 21.68234563 13.85145764 24.80538505 13.75 28 C13.72969727 29.23363281 13.72969727 29.23363281 13.70898438 30.4921875 C13.67405016 32.49508221 13.62026057 34.49763356 13.5625 36.5 C14.81540172 36.49539104 16.06830343 36.49078207 17.35917187 36.48603344 C47.09263102 36.37777185 76.8260394 36.29531138 106.5596473 36.24467335 C110.21839477 36.23841973 113.87714182 36.23194813 117.53588867 36.2253418 C118.26428712 36.22403024 118.99268558 36.22271869 119.74315671 36.2213674 C131.54125429 36.1996038 143.3392302 36.16017708 155.13725557 36.11423602 C167.24083495 36.06749781 179.34435055 36.03971021 191.44801646 36.02955753 C198.9182293 36.02269284 206.38809825 36.00100269 213.85820524 35.96041767 C219.58385995 35.93089261 225.30929373 35.9277192 231.03500938 35.93446159 C233.38565186 35.93308309 235.73630703 35.92309832 238.0868721 35.90397263 C241.29107951 35.87917431 244.49380364 35.88504752 247.69804382 35.89872742 C248.632871 35.88416321 249.56769818 35.869599 250.53085345 35.85459346 C255.09130852 35.90739057 256.96315608 36.03603349 260.67902851 38.91257954 C262.5625 41.5 262.5625 41.5 262.5625 43.5 C268.8325 43.5 275.1025 43.5 281.5625 43.5 C281.50449219 41.73914062 281.44648438 39.97828125 281.38671875 38.1640625 C281.3397922 35.81773502 281.29429517 33.47137864 281.25 31.125 C281.20810547 29.96871094 281.16621094 28.81242187 281.12304688 27.62109375 C280.99483926 18.54399455 282.70887658 12.05428222 288.625 5.0625 C289.264375 4.546875 289.90375 4.03125 290.5625 3.5 C291.201875 2.96375 291.84125 2.4275 292.5 1.875 C299.03599539 -2.48233026 305.95040239 -2.19748858 313.5625 -1.5 C320.4339046 0.47392834 325.21965917 5.03000217 328.8125 11.125 C330.81780869 14.99238104 331.68894437 17.65978916 331.66015625 21.94921875 C331.65693359 22.79677734 331.65371094 23.64433594 331.65039062 24.51757812 C331.64201172 25.39865234 331.63363281 26.27972656 331.625 27.1875 C331.62048828 28.08017578 331.61597656 28.97285156 331.61132812 29.89257812 C331.59954983 32.09511987 331.58310164 34.29752599 331.5625 36.5 C332.543965 36.48334541 332.543965 36.48334541 333.54525757 36.46635437 C340.39152292 36.35523177 347.23752963 36.28011384 354.08447266 36.2253418 C356.63535987 36.20028873 359.18617595 36.16623672 361.73681641 36.12280273 C365.41586927 36.06174856 369.09396821 36.03369652 372.7734375 36.01171875 C373.90300873 35.98591232 375.03257996 35.9601059 376.19638062 35.93351746 C383.63995087 35.93091546 389.4017577 37.15361516 395.5625 41.5 C400.61091443 46.82561199 403.80638212 52.28463526 403.82256222 59.75689983 C403.82962781 60.80222336 403.8366934 61.8475469 403.8439731 62.9245469 C403.84155802 64.06655503 403.83914293 65.20856317 403.83665466 66.38517761 C403.84189134 67.60337623 403.84712802 68.82157486 403.85252339 70.07668859 C403.86493294 73.4552228 403.86836685 76.83354889 403.86792648 80.21209157 C403.8695755 83.85710177 403.88264368 87.50207415 403.89411926 91.14706421 C403.91696261 99.11619314 403.92488927 107.08529543 403.92994571 115.05445266 C403.93320373 120.03211281 403.93972689 125.00976525 403.9469471 129.98742104 C403.96651276 143.77388224 403.98291697 157.56033627 403.98582363 171.34681225 C403.9860112 172.22893679 403.98619877 173.11106133 403.98639202 174.01991691 C403.98675827 175.80814191 403.98712197 177.5963669 403.98748314 179.3845919 C403.98766595 180.27224933 403.98784876 181.15990675 403.98803711 182.07446289 C403.98830793 183.4075777 403.98830793 183.4075777 403.98858423 184.76762412 C403.99212501 199.16480545 404.01914154 213.56183713 404.056535 227.95896658 C404.09463455 242.74652345 404.11398123 257.5340061 404.11428314 272.32161313 C404.11486737 280.62179852 404.1233368 288.92180542 404.15228081 297.22194481 C404.17681687 304.29047396 404.18406272 311.35875954 404.16903328 318.42731979 C404.16187315 322.03172094 404.16268215 325.63564134 404.18544388 329.23998833 C404.20992048 333.15350562 404.1953726 337.06634049 404.17723083 340.97990417 C404.1904308 342.1107587 404.20363077 343.24161323 404.21723074 344.40673608 C404.13988984 351.72261027 402.80835608 357.43601432 398.5625 363.5 C380.57513767 380.56445969 356.67258882 371.5 331.5625 371.5 C331.5625 407.47 331.5625 443.44 331.5625 480.5 C337.8325 480.5 344.1025 480.5 350.5625 480.5 C356.59698276 484.12068966 356.59698276 484.12068966 357.5625 487.5 C357.37307909 490.59387486 357.19726416 492.69528667 355.25324917 495.15978432 C352.25939444 497.53294004 348.4142149 496.91429592 344.74829102 496.88818359 C343.39664856 496.89606903 343.39664856 496.89606903 342.0177002 496.90411377 C339.03376012 496.91733648 336.05035193 496.90856687 333.06640625 496.8984375 C330.99519244 496.90045776 328.92397932 496.90336879 326.85276794 496.90713501 C322.50911699 496.91156159 318.16565096 496.90511715 313.82202148 496.89111328 C308.25208829 496.87403196 302.68258907 496.88385393 297.11267185 496.90183067 C292.83445463 496.91266853 288.55634036 496.90922195 284.27812004 496.9014473 C282.2243946 496.89944475 280.17065983 496.90190647 278.11694527 496.90888596 C275.2464127 496.91649918 272.37658365 496.90489738 269.50610352 496.88818359 C268.65557907 496.89425629 267.80505463 496.90032898 266.92875671 496.90658569 C263.40665147 496.86856613 261.1611686 496.8290576 258.03453064 495.11050415 C256.10885057 493.00367589 256.05438844 491.82446245 256.125 489 C256.12693359 487.83984375 256.12693359 487.83984375 256.12890625 486.65625 C256.66143316 484.00800806 257.44379773 483.13513963 259.5625 481.5 C266.52669414 479.17860195 274.22159482 480.5 281.5625 480.5 C281.5625 444.53 281.5625 408.56 281.5625 371.5 C193.1225 371.5 104.6825 371.5 13.5625 371.5 C13.5625 399.55 13.5625 427.6 13.5625 456.5 C12.2425 458.15 10.9225 459.8 9.5625 461.5 C8.2425 461.5 6.9225 461.5 5.5625 461.5 C5.5625 467.77 5.5625 474.04 5.5625 480.5 C7.45355469 480.46519531 9.34460938 480.43039062 11.29296875 480.39453125 C13.77863695 480.36639161 16.26431476 480.33909164 18.75 480.3125 C20.61881836 480.27479492 20.61881836 480.27479492 22.52539062 480.23632812 C23.72744141 480.22666016 24.92949219 480.21699219 26.16796875 480.20703125 C27.27293701 480.1913208 28.37790527 480.17561035 29.51635742 480.15942383 C33.23513526 480.57520447 35.89845644 481.83595644 38.5625 484.5 C38.80078125 486.4609375 38.80078125 486.4609375 38.875 488.875 C38.93107422 490.06222656 38.93107422 490.06222656 38.98828125 491.2734375 C38.5625 493.5 38.5625 493.5 37.09486389 495.11489868 C33.32132876 497.17887081 29.855545 496.91843301 25.61889648 496.88818359 C24.71604919 496.89344055 23.8132019 496.89869751 22.88299561 496.90411377 C19.89968552 496.91731419 16.91690923 496.9085762 13.93359375 496.8984375 C11.86141355 496.90045804 9.78923404 496.90336932 7.71705627 496.90713501 C3.37518541 496.91155827 -0.96650027 496.90512648 -5.30834961 496.89111328 C-10.87947333 496.87401083 -16.45016383 496.88386941 -22.02127171 496.90183067 C-26.29944639 496.91265928 -30.57751797 496.90922658 -34.85569572 496.9014473 C-36.91024769 496.89944329 -38.96480895 496.90191157 -41.01935005 496.90888596 C-43.88758359 496.91648636 -46.75511027 496.90491646 -49.62329102 496.88818359 C-50.47583969 496.89425629 -51.32838837 496.90032898 -52.20677185 496.90658569 C-58.00609071 496.84375855 -58.00609071 496.84375855 -60.12434292 495.15587807 C-62.10876182 492.6535455 -62.31112044 490.65948894 -62.4375 487.5 C-60.63748191 483.33153706 -59.63312288 482.59781144 -55.4375 480.5 C-49.1675 480.5 -42.8975 480.5 -36.4375 480.5 C-36.4375 444.53 -36.4375 408.56 -36.4375 371.5 C-54.2575 371.5 -72.0775 371.5 -90.4375 371.5 C-100.1301267 366.65368665 -104.99529682 363.34413063 -108.4375 353.5 C-108.69165033 350.97331744 -108.69165033 350.97331744 -108.69756222 348.24310017 C-108.70462781 347.19777664 -108.7116934 346.1524531 -108.7189731 345.0754531 C-108.71655802 343.93344497 -108.71414293 342.79143683 -108.71165466 341.61482239 C-108.71689134 340.39662377 -108.72212802 339.17842514 -108.72752339 337.92331141 C-108.73993294 334.5447772 -108.74336685 331.16645111 -108.74292648 327.78790843 C-108.7445755 324.14289823 -108.75764368 320.49792585 -108.76911926 316.85293579 C-108.79196261 308.88380686 -108.79988927 300.91470457 -108.80494571 292.94554734 C-108.80820373 287.96788719 -108.81472689 282.99023475 -108.8219471 278.01257896 C-108.84151276 264.22611776 -108.85791697 250.43966373 -108.86082363 236.65318775 C-108.8610112 235.77106321 -108.86119877 234.88893867 -108.86139202 233.98008309 C-108.86175827 232.19185809 -108.86212197 230.4036331 -108.86248314 228.6154081 C-108.86266595 227.72775067 -108.86284876 226.84009325 -108.86303711 225.92553711 C-108.86321766 225.0367939 -108.86339821 224.1480507 -108.86358423 223.23237588 C-108.86712501 208.83519455 -108.89414154 194.43816287 -108.931535 180.04103342 C-108.96963455 165.25347655 -108.98898123 150.4659939 -108.98928314 135.67838687 C-108.98986737 127.37820148 -108.9983368 119.07819458 -109.02728081 110.77805519 C-109.05181687 103.70952604 -109.05906272 96.64124046 -109.04403328 89.57268021 C-109.03687315 85.96827906 -109.03768215 82.36435866 -109.06044388 78.76001167 C-109.08492048 74.84649438 -109.0703726 70.93365951 -109.05223083 67.02009583 C-109.0654308 65.8892413 -109.07863077 64.75838677 -109.09223074 63.59326392 C-109.01488984 56.27738973 -107.68335608 50.56398568 -103.4375 44.5 C-98.00155274 39.34296245 -92.53085282 36.23726767 -84.9128418 36.27294922 C-83.83209885 36.27310028 -82.7513559 36.27325134 -81.63786316 36.27340698 C-79.90479668 36.28889084 -79.90479668 36.28889084 -78.13671875 36.3046875 C-76.94520706 36.3075174 -75.75369537 36.31034729 -74.52607727 36.31326294 C-70.72561544 36.32444567 -66.92539044 36.3495472 -63.125 36.375 C-60.54622737 36.38503225 -57.96745103 36.39415767 -55.38867188 36.40234375 C-49.07153397 36.4243788 -42.75453391 36.45783768 -36.4375 36.5 C-36.45707764 35.1907959 -36.47665527 33.8815918 -36.49682617 32.53271484 C-36.51265924 30.8004598 -36.52801499 29.06820035 -36.54296875 27.3359375 C-36.55710815 26.47476318 -36.57124756 25.61358887 -36.58581543 24.72631836 C-36.63707407 16.80970645 -35.19733773 11.76822889 -30.0625 5.6875 C-21.56729147 -1.39184044 -10.74815301 -4.8028164 0 0 Z " fill="#ECF3F4" transform="translate(108.4375,8.5)"/>
<path d="M0 0 C7.04413328 4.2929911 11.40463657 10.60091205 13.5625 18.5 C13.89121335 21.68234563 13.85145764 24.80538505 13.75 28 C13.72969727 29.23363281 13.72969727 29.23363281 13.70898438 30.4921875 C13.67405016 32.49508221 13.62026057 34.49763356 13.5625 36.5 C14.81540172 36.49539104 16.06830343 36.49078207 17.35917187 36.48603344 C47.09263102 36.37777185 76.8260394 36.29531138 106.5596473 36.24467335 C110.21839477 36.23841973 113.87714182 36.23194813 117.53588867 36.2253418 C118.26428712 36.22403024 118.99268558 36.22271869 119.74315671 36.2213674 C131.54125429 36.1996038 143.3392302 36.16017708 155.13725557 36.11423602 C167.24083495 36.06749781 179.34435055 36.03971021 191.44801646 36.02955753 C198.9182293 36.02269284 206.38809825 36.00100269 213.85820524 35.96041767 C219.58385995 35.93089261 225.30929373 35.9277192 231.03500938 35.93446159 C233.38565186 35.93308309 235.73630703 35.92309832 238.0868721 35.90397263 C241.29107951 35.87917431 244.49380364 35.88504752 247.69804382 35.89872742 C248.632871 35.88416321 249.56769818 35.869599 250.53085345 35.85459346 C255.0442161 35.90684537 256.96833014 36.05213793 260.67512226 38.84617329 C262.5625 41.5 262.5625 41.5 262.625 44.5625 C261.41029615 47.92079888 260.33329124 49.2734253 257.5625 51.5 C254.86457062 52.00090468 254.86457062 52.00090468 251.70910645 52.00222206 C250.50532097 52.01243625 249.30153549 52.02265044 248.06127167 52.03317416 C246.72378811 52.02430936 245.38630693 52.01507939 244.04882812 52.00552368 C242.62928897 52.00996555 241.20975441 52.01616659 239.7902298 52.02397859 C235.8847197 52.04040037 231.97959554 52.03191948 228.07408524 52.01948738 C223.86405901 52.01044515 219.65410369 52.02444476 215.4440918 52.03575134 C208.14751022 52.05226793 200.85103824 52.05438293 193.55444336 52.04698563 C183.0004035 52.03648123 172.44649807 52.04984454 161.89247608 52.06945018 C144.76425445 52.10080394 127.63606118 52.11579704 110.5078125 52.11914062 C109.48235227 52.11934461 108.45689203 52.1195486 107.40035725 52.11975877 C106.37360229 52.11996214 105.34684732 52.12016551 104.28897858 52.12037504 C89.7317106 52.1232951 75.17445135 52.13009768 60.6171875 52.14160156 C59.59297353 52.14240686 58.56875956 52.14321215 57.5135088 52.14404185 C40.45016558 52.157786 23.38683803 52.17956751 6.32350922 52.2054714 C-4.20703378 52.22093594 -14.73752561 52.22812109 -25.26807976 52.22467647 C-32.48004901 52.22263973 -39.69199281 52.22728161 -46.90395546 52.23721983 C-51.06844884 52.24266474 -55.23287633 52.24470653 -59.39736938 52.23804665 C-63.20686659 52.23198467 -67.01624322 52.23498558 -70.82573032 52.24528353 C-72.20656026 52.24736328 -73.58740028 52.24602558 -74.96822262 52.24099393 C-76.84017523 52.23463889 -78.71215918 52.24168699 -80.58410645 52.24946022 C-81.62540962 52.24957025 -82.6667128 52.24968028 -83.73957062 52.24979365 C-86.52866695 52.50845484 -88.11790462 52.95483464 -90.4375 54.5 C-92.60968805 57.75828208 -92.68779871 58.65270901 -92.68918228 62.41824245 C-92.69439778 63.43890031 -92.69961327 64.45955817 -92.70498681 65.51114506 C-92.69829465 67.1981799 -92.69829465 67.1981799 -92.69146729 68.91929626 C-92.69458727 70.11143457 -92.69770725 71.30357287 -92.70092177 72.53183657 C-92.70753411 75.84667532 -92.70513359 79.16128848 -92.69894934 82.47611368 C-92.69443569 86.04877599 -92.70140322 89.62141818 -92.70690918 93.19407654 C-92.71581676 100.19548521 -92.71387503 107.19685107 -92.7080839 114.19826143 C-92.70357241 119.88751908 -92.70295228 125.57676471 -92.70513153 131.26602364 C-92.705438 132.07486776 -92.70574446 132.88371188 -92.70606022 133.71706643 C-92.70669965 135.3600829 -92.70734808 137.00309938 -92.7080054 138.64611585 C-92.71371278 154.06421034 -92.70714459 169.48228108 -92.69640467 184.90037168 C-92.68747048 198.1359856 -92.68901932 211.37156444 -92.69824219 224.60717773 C-92.70894053 239.96746908 -92.71316164 255.32773957 -92.70701766 270.68803412 C-92.70638055 272.32540961 -92.7057518 273.9627851 -92.70513153 275.6001606 C-92.70482298 276.40583299 -92.70451443 277.21150537 -92.70419653 278.04159207 C-92.70246815 283.72492182 -92.70538779 289.40823838 -92.71009064 295.09156609 C-92.71569471 302.01643195 -92.7141931 308.94125246 -92.70352915 315.86611312 C-92.69826577 319.400745 -92.69622696 322.93530121 -92.70282745 326.46993256 C-92.7098677 330.29790471 -92.70147248 334.12575242 -92.69146729 337.95372009 C-92.69592873 339.07617927 -92.70039017 340.19863845 -92.70498681 341.35511154 C-92.69977132 342.37837714 -92.69455582 343.40164275 -92.68918228 344.4559164 C-92.68885758 345.339798 -92.68853287 346.22367959 -92.68819833 347.13434547 C-92.40898322 349.76909179 -91.9301123 351.31146133 -90.4375 353.5 C-86.91363574 356.15510308 -82.87134486 355.77843779 -78.64755249 355.75168228 C-77.85397661 355.75458916 -77.06040074 355.75749604 -76.24277711 355.76049101 C-73.56721151 355.76782562 -70.89187276 355.76083158 -68.21630859 355.75396729 C-66.28529937 355.75627035 -64.35429103 355.75944583 -62.42328453 355.76342177 C-57.10408416 355.77179963 -51.7849552 355.76763096 -46.46575451 355.76144934 C-40.73426508 355.75693805 -35.00278823 355.76390201 -29.27130127 355.76940918 C-18.03820662 355.778319 -6.80513865 355.77637411 4.42795706 355.7705839 C13.55445163 355.76607365 22.68093871 355.76545174 31.80743408 355.76763153 C33.10460629 355.767938 34.4017785 355.76824446 35.73825896 355.76856022 C38.3731459 355.76919964 41.00803284 355.76984807 43.64291978 355.7705054 C67.66550143 355.77605052 91.68806864 355.77029254 115.71064797 355.7598202 C137.65020541 355.75032868 159.58973964 355.75117792 181.52929688 355.76074219 C206.16667 355.77144658 230.80402908 355.77566398 255.44140434 355.76951766 C258.06679153 355.76888054 260.69217872 355.7682518 263.31756592 355.76763153 C264.60942672 355.76732298 265.90128753 355.76701443 267.23229563 355.76669653 C276.35158323 355.7649671 285.4708626 355.76789001 294.59014893 355.77259064 C305.69811299 355.77819029 316.80604877 355.77670236 327.91400957 355.76602915 C333.58529499 355.76076007 339.25653319 355.75873666 344.9278183 355.76532745 C350.11401975 355.77126352 355.30013 355.76805073 360.48632312 355.75737235 C362.3678226 355.75512834 364.2493297 355.75629686 366.13082433 355.76112393 C368.67817832 355.76716066 371.22521535 355.76101322 373.77255249 355.75168228 C374.88132582 355.75870578 374.88132582 355.75870578 376.01249862 355.76587117 C381.12205931 355.73813505 381.12205931 355.73813505 385.5625 353.5 C387.60225197 350.5080844 387.81407648 348.02782409 387.81976891 344.45870972 C387.82944224 342.92473636 387.82944224 342.92473636 387.839311 341.35977364 C387.8362138 340.23799658 387.8331166 339.11621952 387.82992554 337.96044922 C387.83672221 336.17096013 387.83672221 336.17096013 387.84365618 334.34531975 C387.85413884 331.0327482 387.85562394 327.72039349 387.85326743 324.4078207 C387.85285967 320.83584978 387.86389442 317.26391138 387.87338257 313.69195557 C387.89000104 306.69403462 387.89549246 299.69614736 387.89660732 292.69820833 C387.89755721 287.01183371 387.90166453 281.32547022 387.90800858 275.63909912 C387.92562178 259.52443042 387.9348471 243.40978838 387.93334763 227.29510999 C387.93326772 226.42621979 387.9331878 225.55732958 387.93310547 224.66210938 C387.93298283 223.35718698 387.93298283 223.35718698 387.93285771 222.02590251 C387.93204435 207.91885251 387.95119438 193.81190916 387.9793822 179.70489001 C388.00808335 165.22701756 388.02192409 150.74919718 388.02019465 136.27129555 C388.01952988 128.14010743 388.02506025 120.00903119 388.04655075 111.87786865 C388.06472599 104.95665396 388.06914002 98.03560186 388.0555319 91.11437368 C388.04898415 87.58167164 388.04894953 84.04928187 388.0662384 80.51660919 C388.08476991 76.69077691 388.07246208 72.86540502 388.05697632 69.03955078 C388.07240701 67.35688519 388.07240701 67.35688519 388.08814943 65.64022636 C388.07895184 64.61757746 388.06975425 63.59492855 388.06027794 62.54129028 C388.06071267 61.65795076 388.06114741 60.77461124 388.06159532 59.86450386 C387.39837657 56.72245215 385.99202506 55.52751883 383.5625 53.5 C380.19512053 51.81631027 376.38206639 52.35591586 372.67822266 52.3581543 C371.75776657 52.35467987 370.83731049 52.35120544 369.88896179 52.34762573 C367.88587679 52.34026241 365.88278359 52.33492011 363.87968826 52.33133507 C360.71109603 52.32418384 357.54265994 52.30852784 354.37411499 52.28999329 C345.36368945 52.23745688 336.35334888 52.18952697 327.34277344 52.17407227 C321.83547447 52.16400557 316.32856704 52.13471435 310.82142258 52.09275246 C308.72027927 52.08041874 306.61908071 52.0753255 304.51790237 52.07755089 C301.58003018 52.07989691 298.6432864 52.05779061 295.70556641 52.0300293 C294.83476944 52.03663071 293.96397247 52.04323212 293.06678772 52.05003357 C287.18592832 51.95860613 287.18592832 51.95860613 284.05355835 49.65437317 C280.33478117 44.28125428 281.2606062 37.71466386 281.1875 31.4375 C281.15011719 30.24705078 281.11273438 29.05660156 281.07421875 27.83007812 C280.9836444 18.67703649 282.65769877 12.11476509 288.625 5.0625 C289.264375 4.546875 289.90375 4.03125 290.5625 3.5 C291.201875 2.96375 291.84125 2.4275 292.5 1.875 C299.03599539 -2.48233026 305.95040239 -2.19748858 313.5625 -1.5 C320.4339046 0.47392834 325.21965917 5.03000217 328.8125 11.125 C330.81780869 14.99238104 331.68894437 17.65978916 331.66015625 21.94921875 C331.65693359 22.79677734 331.65371094 23.64433594 331.65039062 24.51757812 C331.64201172 25.39865234 331.63363281 26.27972656 331.625 27.1875 C331.62048828 28.08017578 331.61597656 28.97285156 331.61132812 29.89257812 C331.59954983 32.09511987 331.58310164 34.29752599 331.5625 36.5 C332.543965 36.48334541 332.543965 36.48334541 333.54525757 36.46635437 C340.39152292 36.35523177 347.23752963 36.28011384 354.08447266 36.2253418 C356.63535987 36.20028873 359.18617595 36.16623672 361.73681641 36.12280273 C365.41586927 36.06174856 369.09396821 36.03369652 372.7734375 36.01171875 C373.90300873 35.98591232 375.03257996 35.9601059 376.19638062 35.93351746 C383.63995087 35.93091546 389.4017577 37.15361516 395.5625 41.5 C400.61091443 46.82561199 403.80638212 52.28463526 403.82256222 59.75689983 C403.82962781 60.80222336 403.8366934 61.8475469 403.8439731 62.9245469 C403.84155802 64.06655503 403.83914293 65.20856317 403.83665466 66.38517761 C403.84189134 67.60337623 403.84712802 68.82157486 403.85252339 70.07668859 C403.86493294 73.4552228 403.86836685 76.83354889 403.86792648 80.21209157 C403.8695755 83.85710177 403.88264368 87.50207415 403.89411926 91.14706421 C403.91696261 99.11619314 403.92488927 107.08529543 403.92994571 115.05445266 C403.93320373 120.03211281 403.93972689 125.00976525 403.9469471 129.98742104 C403.96651276 143.77388224 403.98291697 157.56033627 403.98582363 171.34681225 C403.9860112 172.22893679 403.98619877 173.11106133 403.98639202 174.01991691 C403.98675827 175.80814191 403.98712197 177.5963669 403.98748314 179.3845919 C403.98766595 180.27224933 403.98784876 181.15990675 403.98803711 182.07446289 C403.98830793 183.4075777 403.98830793 183.4075777 403.98858423 184.76762412 C403.99212501 199.16480545 404.01914154 213.56183713 404.056535 227.95896658 C404.09463455 242.74652345 404.11398123 257.5340061 404.11428314 272.32161313 C404.11486737 280.62179852 404.1233368 288.92180542 404.15228081 297.22194481 C404.17681687 304.29047396 404.18406272 311.35875954 404.16903328 318.42731979 C404.16187315 322.03172094 404.16268215 325.63564134 404.18544388 329.23998833 C404.20992048 333.15350562 404.1953726 337.06634049 404.17723083 340.97990417 C404.1904308 342.1107587 404.20363077 343.24161323 404.21723074 344.40673608 C404.13988984 351.72261027 402.80835608 357.43601432 398.5625 363.5 C380.57513767 380.56445969 356.67258882 371.5 331.5625 371.5 C331.5625 407.47 331.5625 443.44 331.5625 480.5 C337.8325 480.5 344.1025 480.5 350.5625 480.5 C356.59698276 484.12068966 356.59698276 484.12068966 357.5625 487.5 C357.37307909 490.59387486 357.19726416 492.69528667 355.25324917 495.15978432 C352.25939444 497.53294004 348.4142149 496.91429592 344.74829102 496.88818359 C343.39664856 496.89606903 343.39664856 496.89606903 342.0177002 496.90411377 C339.03376012 496.91733648 336.05035193 496.90856687 333.06640625 496.8984375 C330.99519244 496.90045776 328.92397932 496.90336879 326.85276794 496.90713501 C322.50911699 496.91156159 318.16565096 496.90511715 313.82202148 496.89111328 C308.25208829 496.87403196 302.68258907 496.88385393 297.11267185 496.90183067 C292.83445463 496.91266853 288.55634036 496.90922195 284.27812004 496.9014473 C282.2243946 496.89944475 280.17065983 496.90190647 278.11694527 496.90888596 C275.2464127 496.91649918 272.37658365 496.90489738 269.50610352 496.88818359 C268.65557907 496.89425629 267.80505463 496.90032898 266.92875671 496.90658569 C263.40665147 496.86856613 261.1611686 496.8290576 258.03453064 495.11050415 C256.10885057 493.00367589 256.05438844 491.82446245 256.125 489 C256.12693359 487.83984375 256.12693359 487.83984375 256.12890625 486.65625 C256.66143316 484.00800806 257.44379773 483.13513963 259.5625 481.5 C266.52669414 479.17860195 274.22159482 480.5 281.5625 480.5 C281.5625 444.53 281.5625 408.56 281.5625 371.5 C193.1225 371.5 104.6825 371.5 13.5625 371.5 C13.5625 399.55 13.5625 427.6 13.5625 456.5 C12.2425 458.15 10.9225 459.8 9.5625 461.5 C8.2425 461.5 6.9225 461.5 5.5625 461.5 C5.5625 467.77 5.5625 474.04 5.5625 480.5 C7.45355469 480.46519531 9.34460938 480.43039062 11.29296875 480.39453125 C13.77863695 480.36639161 16.26431476 480.33909164 18.75 480.3125 C20.61881836 480.27479492 20.61881836 480.27479492 22.52539062 480.23632812 C23.72744141 480.22666016 24.92949219 480.21699219 26.16796875 480.20703125 C27.27293701 480.1913208 28.37790527 480.17561035 29.51635742 480.15942383 C33.23513526 480.57520447 35.89845644 481.83595644 38.5625 484.5 C38.80078125 486.4609375 38.80078125 486.4609375 38.875 488.875 C38.93107422 490.06222656 38.93107422 490.06222656 38.98828125 491.2734375 C38.5625 493.5 38.5625 493.5 37.09486389 495.11489868 C33.32132876 497.17887081 29.855545 496.91843301 25.61889648 496.88818359 C24.71604919 496.89344055 23.8132019 496.89869751 22.88299561 496.90411377 C19.89968552 496.91731419 16.91690923 496.9085762 13.93359375 496.8984375 C11.86141355 496.90045804 9.78923404 496.90336932 7.71705627 496.90713501 C3.37518541 496.91155827 -0.96650027 496.90512648 -5.30834961 496.89111328 C-10.87947333 496.87401083 -16.45016383 496.88386941 -22.02127171 496.90183067 C-26.29944639 496.91265928 -30.57751797 496.90922658 -34.85569572 496.9014473 C-36.91024769 496.89944329 -38.96480895 496.90191157 -41.01935005 496.90888596 C-43.88758359 496.91648636 -46.75511027 496.90491646 -49.62329102 496.88818359 C-50.47583969 496.89425629 -51.32838837 496.90032898 -52.20677185 496.90658569 C-58.00609071 496.84375855 -58.00609071 496.84375855 -60.12434292 495.15587807 C-62.10876182 492.6535455 -62.31112044 490.65948894 -62.4375 487.5 C-60.63748191 483.33153706 -59.63312288 482.59781144 -55.4375 480.5 C-49.1675 480.5 -42.8975 480.5 -36.4375 480.5 C-36.4375 444.53 -36.4375 408.56 -36.4375 371.5 C-54.2575 371.5 -72.0775 371.5 -90.4375 371.5 C-100.1301267 366.65368665 -104.99529682 363.34413063 -108.4375 353.5 C-108.69165033 350.97331744 -108.69165033 350.97331744 -108.69756222 348.24310017 C-108.70462781 347.19777664 -108.7116934 346.1524531 -108.7189731 345.0754531 C-108.71655802 343.93344497 -108.71414293 342.79143683 -108.71165466 341.61482239 C-108.71689134 340.39662377 -108.72212802 339.17842514 -108.72752339 337.92331141 C-108.73993294 334.5447772 -108.74336685 331.16645111 -108.74292648 327.78790843 C-108.7445755 324.14289823 -108.75764368 320.49792585 -108.76911926 316.85293579 C-108.79196261 308.88380686 -108.79988927 300.91470457 -108.80494571 292.94554734 C-108.80820373 287.96788719 -108.81472689 282.99023475 -108.8219471 278.01257896 C-108.84151276 264.22611776 -108.85791697 250.43966373 -108.86082363 236.65318775 C-108.8610112 235.77106321 -108.86119877 234.88893867 -108.86139202 233.98008309 C-108.86175827 232.19185809 -108.86212197 230.4036331 -108.86248314 228.6154081 C-108.86266595 227.72775067 -108.86284876 226.84009325 -108.86303711 225.92553711 C-108.86321766 225.0367939 -108.86339821 224.1480507 -108.86358423 223.23237588 C-108.86712501 208.83519455 -108.89414154 194.43816287 -108.931535 180.04103342 C-108.96963455 165.25347655 -108.98898123 150.4659939 -108.98928314 135.67838687 C-108.98986737 127.37820148 -108.9983368 119.07819458 -109.02728081 110.77805519 C-109.05181687 103.70952604 -109.05906272 96.64124046 -109.04403328 89.57268021 C-109.03687315 85.96827906 -109.03768215 82.36435866 -109.06044388 78.76001167 C-109.08492048 74.84649438 -109.0703726 70.93365951 -109.05223083 67.02009583 C-109.0654308 65.8892413 -109.07863077 64.75838677 -109.09223074 63.59326392 C-109.01488984 56.27738973 -107.68335608 50.56398568 -103.4375 44.5 C-98.00155274 39.34296245 -92.53085282 36.23726767 -84.9128418 36.27294922 C-83.83209885 36.27310028 -82.7513559 36.27325134 -81.63786316 36.27340698 C-79.90479668 36.28889084 -79.90479668 36.28889084 -78.13671875 36.3046875 C-76.94520706 36.3075174 -75.75369537 36.31034729 -74.52607727 36.31326294 C-70.72561544 36.32444567 -66.92539044 36.3495472 -63.125 36.375 C-60.54622737 36.38503225 -57.96745103 36.39415767 -55.38867188 36.40234375 C-49.07153397 36.4243788 -42.75453391 36.45783768 -36.4375 36.5 C-36.45707764 35.1907959 -36.47665527 33.8815918 -36.49682617 32.53271484 C-36.51265924 30.8004598 -36.52801499 29.06820035 -36.54296875 27.3359375 C-36.55710815 26.47476318 -36.57124756 25.61358887 -36.58581543 24.72631836 C-36.63707407 16.80970645 -35.19733773 11.76822889 -30.0625 5.6875 C-21.56729147 -1.39184044 -10.74815301 -4.8028164 0 0 Z " fill="#000000" transform="translate(108.4375,8.5)"/>
<path d="M0 0 C12.03930331 -0.06950025 24.07855892 -0.12281151 36.11802197 -0.15543652 C41.70839205 -0.17109462 47.29862491 -0.19233576 52.88891602 -0.22631836 C58.28352012 -0.25890631 63.67799221 -0.27685193 69.07268715 -0.28463173 C71.13118887 -0.29017622 73.18968334 -0.3010032 75.24812889 -0.31719017 C78.13066619 -0.33895673 81.01265745 -0.34196722 83.89526367 -0.34057617 C85.17272713 -0.35675491 85.17272713 -0.35675491 86.47599792 -0.3732605 C91.13948996 -0.34889711 94.23129228 -0.054287 98 3 C100.17117969 6.25676953 100.25078185 7.15181842 100.25447559 10.91544914 C100.26030779 11.9354903 100.26613998 12.95553146 100.27214891 14.00648296 C100.26836958 15.13049074 100.26459026 16.25449852 100.26069641 17.41256714 C100.26452196 18.60399987 100.26834751 19.79543261 100.27228898 21.02296937 C100.28084224 24.33587354 100.28037777 27.64855658 100.27610838 30.96145463 C100.27364786 34.53209503 100.28264695 38.10270902 100.29014587 41.67333984 C100.30291408 48.67106935 100.3046839 55.66876053 100.30234561 62.66649972 C100.30056453 68.35336587 100.30230758 74.04022036 100.30657005 79.72708511 C100.30716524 80.53564051 100.30776043 81.34419591 100.30837366 82.17725299 C100.30958538 83.81970373 100.31079951 85.46215447 100.31201603 87.10460521 C100.3228999 102.51795874 100.32072517 117.9312904 100.31463119 133.34464516 C100.30946219 147.45106491 100.32071549 161.5574156 100.33972941 175.66382168 C100.35909318 190.14053621 100.36736632 204.61721805 100.36360615 219.09394562 C100.36169177 227.22459886 100.36420465 235.35519333 100.37832069 243.48583603 C100.39021694 250.40812583 100.39165925 257.33032068 100.37953053 264.25261174 C100.37362921 267.7853786 100.37257672 271.31797165 100.38453293 274.85072708 C100.39733679 278.67839336 100.38695688 282.50579439 100.3742218 286.33346558 C100.38159609 287.45301191 100.38897037 288.57255825 100.39656812 289.72603023 C100.38936158 290.75128688 100.38215503 291.77654354 100.37473011 292.83286858 C100.37478513 293.71637045 100.37484014 294.59987232 100.37489682 295.51014698 C99.80455109 299.29806131 98.36276804 301.96014989 95.30007005 304.29711902 C91.94678206 305.32185405 88.6707679 305.27073535 85.19887924 305.24609566 C84.40410498 305.24840335 83.60933072 305.25071103 82.79047239 305.25308865 C80.11086246 305.25840838 77.4314899 305.24938822 74.75189209 305.24050903 C72.81803272 305.2413807 70.88417359 305.24313095 68.95031571 305.24568737 C63.62338652 305.25017261 58.29653732 305.24214106 52.96961832 305.23213124 C47.23003035 305.22351597 41.49044711 305.22641554 35.75085449 305.22793579 C25.8023547 305.22898586 15.85388109 305.22269651 5.90538788 305.21146011 C-8.47856369 305.19522461 -22.86250257 305.18999911 -37.24646232 305.18748413 C-60.58195863 305.18310396 -83.91744097 305.16980328 -107.25292969 305.15087891 C-129.92480395 305.1325139 -152.59667448 305.11834478 -175.26855469 305.10986328 C-175.96724675 305.10960023 -176.66593881 305.10933718 -177.38580336 305.10906615 C-184.40227602 305.10642914 -191.4187487 305.10387751 -198.43522142 305.10138843 C-212.72892955 305.09631584 -227.02263744 305.09067333 -241.31634521 305.08468628 C-243.28555583 305.0838621 -243.28555583 305.0838621 -245.29454848 305.08302127 C-288.52970447 305.06467584 -331.7648532 305.03320795 -375 305 C-375 304.67 -375 304.34 -375 304 C-229.47 303.67 -83.94 303.34 66 303 C67.69076212 297.92771365 68.24853005 295.31364084 68.24050903 290.20425415 C68.24221788 289.54575922 68.24392673 288.8872643 68.24568737 288.20881498 C68.24896509 286.01621293 68.23800728 283.82392122 68.22705078 281.63134766 C68.22648629 280.05412808 68.22680396 278.47690799 68.22793579 276.89968872 C68.22850884 272.62740674 68.21676221 268.35523742 68.20278788 264.08298159 C68.19027262 259.61468358 68.18910939 255.1463829 68.18673706 250.67807007 C68.18052463 242.22091203 68.16411701 233.76380579 68.14403808 225.30667055 C68.12167171 215.676734 68.11068379 206.04679495 68.10064721 196.41683888 C68.07975059 176.61119703 68.04457921 156.80560178 68 137 C66.515 137.99 66.515 137.99 65 139 C65.99792467 136.49400083 67.00322261 133.9922171 68.03515625 131.5 C68.37417969 130.675 68.71320313 129.85 69.0625 129 C69.57490234 127.7625 69.57490234 127.7625 70.09765625 126.5 C71.52287813 122.55133331 72.17238188 118.68879441 72.3125 114.5 C72.34988281 113.7678125 72.38726562 113.035625 72.42578125 112.28125 C72.18194107 109.80723915 72.18194107 109.80723915 69.99978638 107.94346619 C67.18915388 103.80652346 67.48023551 100.51257958 67.57763672 95.62329102 C67.5802652 94.68610229 67.58289368 93.74891357 67.58560181 92.7833252 C67.59856863 89.68977244 67.63942752 86.59721355 67.6796875 83.50390625 C67.69223262 81.35067314 67.70271138 79.19742707 67.71121216 77.04417419 C67.73781195 71.37619862 67.7866675 65.70865445 67.84191895 60.04089355 C67.92816048 50.9728031 67.98765752 41.90459886 68.0340004 32.83622551 C68.0544167 29.67089049 68.08852274 26.50591101 68.12399292 23.3407135 C68.13765302 21.39584673 68.1508704 19.45097677 68.16357422 17.50610352 C68.17704895 16.62850876 68.19052368 15.750914 68.20440674 14.84672546 C68.2089537 13.62093277 68.2089537 13.62093277 68.21359253 12.37037659 C68.22063139 11.66709008 68.22767025 10.96380358 68.23492241 10.23920536 C68.00867951 7.30765368 68.00867951 7.30765368 66 2 C33.33 1.505 33.33 1.505 0 1 C0 0.67 0 0.34 0 0 Z " fill="#DBE8ED" transform="translate(397,60)"/>
<path d="M0 0 C3.9887183 2.43110242 7.32459748 5.18561913 10.55078125 8.5546875 C11.03160156 9.0496875 11.51242188 9.5446875 12.0078125 10.0546875 C20.26525247 19.23516457 21.34595985 29.4581423 20.76416016 41.31201172 C19.81720722 51.26476879 13.8142495 59.09571731 6.55078125 65.5546875 C-3.80167652 73.06957401 -13.91397414 74.77258836 -26.44921875 73.5546875 C-36.78919291 71.22455248 -45.37475882 64.04968096 -51.44921875 55.5546875 C-56.67569956 45.94113037 -58.81467279 34.28509429 -55.90283203 23.53808594 C-52.02154255 13.01283057 -45.0247546 4.66755381 -35.07421875 -0.4453125 C-24.19866208 -5.41699555 -10.77103773 -5.27378611 0 0 Z " fill="#040404" transform="translate(173.44921875,137.4453125)"/>
<path d="M0 0 C8.10579506 6.70231818 13.328459 16.47330932 14.48828125 26.96875 C14.8251512 37.60674827 11.22055817 47.73969321 4.25 55.8125 C-4.56515739 64.34002269 -13.76379518 67.54246761 -25.85083008 67.48974609 C-35.98215721 67.0276487 -44.26499717 62.87559886 -51.3125 55.5 C-59.14157028 45.6716607 -61.57271263 36.21528092 -60.75 23.8125 C-59.17300442 13.98883028 -53.88813847 6.05628821 -46.1875 -0.125 C-31.9973225 -10.36409243 -14.12808363 -10.07475284 0 0 Z " fill="#040404" transform="translate(233.75,233.1875)"/>
<path d="M0 0 C8.37668686 4.76117193 14.91850364 13.00803783 17.5625 22.328125 C19.60285355 34.78885564 18.28377102 46.24271333 10.9375 56.75 C5.35254175 63.4543572 -3.17614719 69.26382699 -12.01635742 70.2175293 C-20.82850454 70.69383503 -29.42377706 71.08756759 -37 66 C-37.69222656 65.55269531 -38.38445312 65.10539062 -39.09765625 64.64453125 C-47.24268608 58.9658469 -54.14672455 51.01817766 -56 41 C-56.84034485 28.51881255 -55.74300861 18.85469597 -47.6171875 8.80859375 C-35.31313418 -4.95173641 -16.5583534 -8.78718588 0 0 Z " fill="#040404" transform="translate(315,230)"/>
<path d="M0 0 C0.639375 -0.02449219 1.27875 -0.04898438 1.9375 -0.07421875 C5.37494742 1.19529308 7.17673974 3.64513452 9 6.6875 C10.46606302 10.28025937 11.5219335 13.95227325 12.5625 17.6875 C13.00746826 19.21431396 13.00746826 19.21431396 13.46142578 20.77197266 C14.32298978 23.73968654 15.16473618 26.71229131 16 29.6875 C16.43321842 31.21625225 16.8667679 32.74491075 17.30078125 34.2734375 C17.96747065 36.62503285 18.62649924 38.978832 19.2734375 41.3359375 C19.77951872 43.62263744 19.77951872 43.62263744 21 44.6875 C21.15557373 44.07455078 21.31114746 43.46160156 21.47143555 42.83007812 C26.71041995 22.26634336 26.71041995 22.26634336 29.5625 12.5625 C29.91441406 11.34304687 30.26632813 10.12359375 30.62890625 8.8671875 C32.20637257 5.20890378 33.93073341 3.20551323 37 0.6875 C40.92115403 0.05731453 43.06283649 0.18616025 46.5703125 2.0625 C50.20789151 5.99248889 50.51795958 10.06978475 51.375 15.25 C51.78094884 17.48987449 52.18860456 19.72944008 52.59765625 21.96875 C52.81566895 23.19207031 53.03368164 24.41539062 53.25830078 25.67578125 C54.05852752 30.07984263 54.96181186 34.46111454 55.87109375 38.84375 C56.1955324 40.41722455 56.5199139 41.99071088 56.84423828 43.56420898 C57.32470249 45.89346056 57.80670205 48.22232516 58.29437256 50.55007935 C58.75190598 52.74155943 59.19922061 54.93491439 59.64453125 57.12890625 C59.90596924 58.39420166 60.16740723 59.65949707 60.43676758 60.96313477 C61.98797972 71.22049982 61.98797972 71.22049982 58.9375 75.75 C56 77.6875 56 77.6875 52.375 77.8125 C49 76.6875 49 76.6875 47.38720703 74.58081055 C45.76893642 71.20556854 45.04657048 67.92782989 44.4296875 64.26953125 C44.30312775 63.5710759 44.17656799 62.87262054 44.0461731 62.15299988 C43.64624569 59.93691242 43.26000605 57.71872386 42.875 55.5 C42.48040355 53.2710828 42.08295293 51.04272014 41.68240356 48.81486511 C41.32166788 46.80178976 40.96898358 44.78727658 40.61669922 42.77270508 C40.16145743 39.79106472 40.16145743 39.79106472 39 37.6875 C38.80365967 38.39245605 38.60731934 39.09741211 38.4050293 39.82373047 C37.50019924 43.07027028 36.59385863 46.31638661 35.6875 49.5625 C35.2244043 51.22539062 35.2244043 51.22539062 34.75195312 52.921875 C33.84182947 56.17915965 32.92253591 59.4337113 32 62.6875 C31.72913574 63.6583252 31.45827148 64.62915039 31.17919922 65.62939453 C30.92541504 66.51481934 30.67163086 67.40024414 30.41015625 68.3125 C30.19109619 69.0859375 29.97203613 69.859375 29.74633789 70.65625 C28.52112932 73.99080523 26.90578591 75.70628234 24 77.6875 C20.5 78.3125 20.5 78.3125 17 77.6875 C11.8088702 73.68383111 10.55596471 69.31952822 8.9375 63.25 C8.56407471 61.92887207 8.56407471 61.92887207 8.18310547 60.58105469 C7.68110553 58.80026573 7.18590142 57.01754604 6.69775391 55.23291016 C6.05928555 52.90377402 5.40117185 50.58174416 4.73046875 48.26171875 C3.80882117 45.07340433 2.89917244 41.88220678 2 38.6875 C1.67 38.6875 1.34 38.6875 1 38.6875 C0.84442627 39.69127686 0.68885254 40.69505371 0.52856445 41.72924805 C-0.05666104 45.46938049 -0.6687351 49.20471123 -1.28881836 52.93920898 C-1.55294828 54.5529409 -1.80988155 56.1678685 -2.05932617 57.78393555 C-2.42019188 60.11342054 -2.80714372 62.43730861 -3.19921875 64.76171875 C-3.304655 65.47962082 -3.41009125 66.19752289 -3.51872253 66.93717957 C-4.4003233 71.94589232 -5.96858404 74.58985742 -10 77.6875 C-13.625 77.75 -13.625 77.75 -17 76.6875 C-19.27642658 74.43046652 -19.96580181 73.21928428 -20.1730957 69.99584961 C-19.30368941 61.31480381 -17.87753255 52.80618285 -16.1875 44.25 C-15.63831193 41.43273864 -15.09242266 38.61484326 -14.546875 35.796875 C-14.41212265 35.10487503 -14.2773703 34.41287506 -14.13853455 33.6999054 C-13.31544353 29.44034711 -12.5710236 25.17585242 -11.890625 20.890625 C-11.72667236 19.88443115 -11.56271973 18.8782373 -11.39379883 17.84155273 C-11.09888948 16.00503596 -10.81901144 14.16601407 -10.55737305 12.32446289 C-9.56763558 6.31027158 -7.17919888 -0.04342257 0 0 Z " fill="#040404" transform="translate(222,133.3125)"/>
<path d="M0 0 C8.68739987 2.02705997 14.47104467 14.63690228 19.25 21.75 C19.86230469 22.65363281 20.47460938 23.55726563 21.10546875 24.48828125 C25.68784146 31.26097048 30.22028023 38.06702762 34.75 44.875 C34.7593457 43.68422852 34.76869141 42.49345703 34.77832031 41.26660156 C34.81821387 36.84564908 34.88397073 32.42539297 34.95751953 28.00488281 C34.98573286 26.09221344 35.00694561 24.1794274 35.02099609 22.26660156 C35.04242081 19.51566827 35.0890674 16.76613825 35.140625 14.015625 C35.14185364 13.16131897 35.14308228 12.30701294 35.14434814 11.42681885 C35.23888737 7.58875795 35.29049478 5.51653145 37.56933594 2.33496094 C40.78374455 0.18290502 42.97405974 0.33557996 46.75 0.875 C49.6475643 3.03844115 50.63406928 4.24645431 51.29589844 7.8347168 C51.3168457 8.98625244 51.33779297 10.13778809 51.359375 11.32421875 C51.39192383 12.63229492 51.42447266 13.94037109 51.45800781 15.28808594 C51.47292584 16.71288128 51.4869003 18.13768678 51.5 19.5625 C51.52582881 21.02769072 51.5528648 22.49286062 51.58105469 23.95800781 C51.6490132 27.81019086 51.68946499 31.66222861 51.72460938 35.51483154 C51.74994256 37.86966093 51.78698267 40.22401052 51.828125 42.57861328 C51.89427069 46.36976771 51.94354569 50.1607287 51.97814941 53.95230103 C51.99264413 55.39357388 52.01139999 56.83481057 52.0345459 58.27597046 C52.06424324 60.29318902 52.07164811 62.31069825 52.078125 64.328125 C52.09214355 66.04757324 52.09214355 66.04757324 52.10644531 67.80175781 C51.70727164 71.2434004 50.80761069 73.11356874 48.75 75.875 C45.35137002 77.57431499 42.34819851 77.94733995 38.75 76.875 C32.27692868 70.61831039 27.5215456 62.25048892 22.625 54.75 C18.18317922 47.97305058 13.72453223 41.2755179 8.75 34.875 C8.74383667 36.5624231 8.74383667 36.5624231 8.73754883 38.28393555 C8.71573322 42.46831725 8.66141903 46.65176185 8.59741211 50.83569336 C8.57425315 52.64452108 8.55984131 54.45348325 8.55444336 56.26245117 C8.54513804 58.86722383 8.50411645 61.46988824 8.45703125 64.07421875 C8.46293022 65.28231453 8.46293022 65.28231453 8.46894836 66.51481628 C8.35916332 70.76474441 8.10171613 72.42430555 5.3972168 75.88989258 C2.75 77.875 2.75 77.875 -0.3125 78.4375 C-3.98025367 77.73516419 -4.97690563 76.80758441 -7.25 73.875 C-7.75793457 70.8013916 -7.75793457 70.8013916 -7.76757812 67.15039062 C-7.7745874 66.48323532 -7.78159668 65.81608002 -7.78881836 65.12870789 C-7.8063863 62.92912857 -7.79478153 60.73084179 -7.78125 58.53125 C-7.7839453 56.9995499 -7.78782804 55.46785147 -7.79284668 53.93615723 C-7.79874004 50.7282683 -7.79018457 47.52082532 -7.77148438 44.31298828 C-7.74869424 40.20353957 -7.76181829 36.09513578 -7.78577423 31.9857254 C-7.800237 28.82350814 -7.79562418 25.66153812 -7.78526306 22.49931335 C-7.78259706 20.98426693 -7.78586112 19.46919796 -7.79518127 17.95417786 C-7.8053556 15.83538468 -7.78983731 13.71827715 -7.76757812 11.59960938 C-7.76280457 9.79236389 -7.76280457 9.79236389 -7.75793457 7.9486084 C-6.94145505 3.00793599 -4.72132602 1.27112624 0 0 Z " fill="#040404" transform="translate(332.25,133.125)"/>
<path d="M0 0 C2.5641029 1.59731 4.44252162 3.16840138 6.3828125 5.484375 C6.9453125 8.984375 6.9453125 8.984375 6.3828125 12.484375 C4.3203125 14.984375 4.3203125 14.984375 1.3828125 16.484375 C-2.49549064 16.4138604 -5.0107124 15.81425685 -8.41796875 13.9609375 C-14.71054024 11.05667374 -22.06476979 11.24548692 -28.57421875 13.515625 C-33.65233676 16.25643832 -37.34538841 19.54662318 -39.83984375 24.79296875 C-41.80274554 31.58914631 -41.94620158 39.43446701 -39.0546875 45.984375 C-36.06079327 50.9142503 -31.95090022 54.34344878 -26.8046875 56.859375 C-19.85471891 58.22211394 -13.60832731 58.39161065 -7.30859375 54.828125 C-3.6105978 51.89022521 -2.08734575 47.89484976 -0.6171875 43.484375 C-1.42542969 43.47019531 -2.23367188 43.45601562 -3.06640625 43.44140625 C-11.77262658 43.05282947 -11.77262658 43.05282947 -15.8671875 40.296875 C-17.95258801 36.94533846 -18.35885731 35.35753955 -17.6171875 31.484375 C-15.52026362 28.80295758 -14.32179624 27.62516788 -10.94750977 26.95092773 C-7.69011668 26.91530618 -4.43724663 26.89046348 -1.1796875 26.921875 C-0.04724609 26.89802734 1.08519531 26.87417969 2.25195312 26.84960938 C10.50077424 26.86419185 10.50077424 26.86419185 14.6328125 29.76953125 C17.32476473 33.9456625 17.14066436 36.66812016 16.3828125 41.484375 C13.8700619 52.82684698 9.32364156 62.91704014 -0.6171875 69.484375 C-8.80936638 74.44605315 -18.31574238 74.63693502 -27.6171875 73.484375 C-30.98191168 72.59076262 -33.69261839 71.35302747 -36.6171875 69.484375 C-37.6896875 68.824375 -38.7621875 68.164375 -39.8671875 67.484375 C-49.72250539 60.31687108 -55.64918746 51.6824293 -57.6171875 39.484375 C-58.82770312 28.29989263 -55.26333189 18.43632459 -48.6171875 9.484375 C-36.15509374 -4.29092864 -16.68644173 -7.70143464 0 0 Z " fill="#050505" transform="translate(453.6171875,137.515625)"/>
<path d="M0 0 C6.21114604 1.14082274 9.51463348 7.40105932 12.92333984 12.30371094 C13.5055127 13.15223633 14.08768555 14.00076172 14.6875 14.875 C15.29416504 15.7505957 15.90083008 16.62619141 16.52587891 17.52832031 C18.37681541 20.20270304 20.22034855 22.88206058 22.0625 25.5625 C23.18211348 27.18632079 24.30189618 28.81002492 25.421875 30.43359375 C27.97623734 34.13811754 30.51984662 37.8499338 33.0625 41.5625 C33.0718457 40.46260742 33.08119141 39.36271484 33.09082031 38.22949219 C33.13072937 34.14395834 33.19649004 30.05917681 33.27001953 25.97412109 C33.29822397 24.20696689 33.31944118 22.43968666 33.33349609 20.67236328 C33.35493358 18.12987778 33.40158503 15.58890662 33.453125 13.046875 C33.45435364 12.25819031 33.45558228 11.46950562 33.45684814 10.65692139 C33.55121688 7.11322608 33.76916675 4.9654199 35.88183594 2.06347656 C39.08867576 -0.14382877 41.26499882 0.01999983 45.0625 0.5625 C47.94073248 2.71570318 48.94631503 3.90443539 49.5771637 7.4775238 C49.58646156 9.17365562 49.58646156 9.17365562 49.59594727 10.90405273 C49.6117836 12.18896103 49.62761993 13.47386932 49.64393616 14.79771423 C49.64009443 16.19717777 49.63505524 17.59663845 49.62890625 18.99609375 C49.63414287 20.43571881 49.6404195 21.87534044 49.64768982 23.31495667 C49.65809185 26.33033404 49.65353659 29.34523947 49.63891602 32.3605957 C49.62173623 36.21903232 49.64521178 40.07597864 49.68040562 43.93424892 C49.70240104 46.90694488 49.70093306 49.87928548 49.6926403 52.85203743 C49.69182177 54.27416683 49.69866664 55.69632258 49.71341133 57.11837578 C49.7308894 59.109369 49.71297615 61.10057705 49.69360352 63.09155273 C49.69264175 64.22310287 49.69167999 65.35465302 49.69068909 66.52049255 C48.86192229 70.53379816 47.23556355 72.05029577 44.0625 74.5625 C40.42505249 74.8993007 38.29689116 74.56343657 35.41015625 72.22265625 C30.50623438 66.94949791 26.70106032 60.69559652 22.7734375 54.68359375 C19.89562412 50.28392118 16.92375208 45.95153493 13.9375 41.625 C13.51668152 41.01526337 13.09586304 40.40552673 12.66229248 39.77731323 C11.4624837 38.03895791 10.26250426 36.30072038 9.0625 34.5625 C9.0531543 35.59656982 9.04380859 36.63063965 9.03417969 37.69604492 C8.99420579 41.54494776 8.92842751 45.39305746 8.85498047 49.24145508 C8.82681351 50.90476263 8.80557767 52.56820296 8.79150391 54.23168945 C8.77001408 56.62780525 8.72333712 59.02233184 8.671875 61.41796875 C8.67003204 62.52763252 8.67003204 62.52763252 8.66815186 63.65971375 C8.53051202 68.54828296 7.57807131 71.14594151 4.0625 74.5625 C1.06963118 75.48735966 -0.72723401 75.02110943 -3.9375 74.5625 C-6.33111076 72.29235088 -6.89500227 70.88694601 -7.32518005 67.6027832 C-7.33058304 66.45124756 -7.33598602 65.29971191 -7.34155273 64.11328125 C-7.35423691 62.80512451 -7.36692108 61.49696777 -7.37998962 60.14916992 C-7.37793827 58.72444501 -7.37495031 57.29972117 -7.37109375 55.875 C-7.37565584 54.41056069 -7.38096149 52.94612351 -7.38697815 51.48168945 C-7.3959063 48.41511324 -7.39348924 45.3487975 -7.38354492 42.28222656 C-7.37204816 38.35440273 -7.39227783 34.42747697 -7.42146206 30.49977112 C-7.43981553 27.47654522 -7.43953353 24.45353496 -7.43382454 21.43026733 C-7.43367126 19.98219542 -7.43972151 18.53410896 -7.45211601 17.08609009 C-7.46700715 15.06134983 -7.45372866 13.03646171 -7.43920898 11.01171875 C-7.43904282 9.86018311 -7.43887665 8.70864746 -7.43870544 7.5222168 C-6.65491437 2.89377625 -4.57163133 0.87541877 0 0 Z " fill="#030303" transform="translate(351.9375,225.4375)"/>
<path d="M0 0 C7.43670014 3.83778947 7.43670014 3.83778947 9.97192383 7.640625 C10.40942383 11.078125 10.40942383 11.078125 9.97192383 14.640625 C7.60323816 17.28001761 6.01102696 18.42747564 2.53442383 19.140625 C-0.94811319 18.46110558 -3.16870709 16.69191151 -6.02807617 14.640625 C-8.95462144 13.66510991 -10.97462613 13.47584412 -14.02807617 13.453125 C-14.89432617 13.43894531 -15.76057617 13.42476562 -16.65307617 13.41015625 C-19.29529155 13.47806562 -19.29529155 13.47806562 -22.02807617 15.640625 C-22.27838594 18.22442677 -22.27838594 18.22442677 -22.02807617 20.640625 C-21.15666992 21.00414062 -20.28526367 21.36765625 -19.38745117 21.7421875 C-15.58770991 23.3459744 -11.80539833 24.98497115 -8.02807617 26.640625 C-6.92077148 27.12015625 -5.8134668 27.5996875 -4.67260742 28.09375 C1.97593962 31.16101378 6.89420288 34.45146278 10.97192383 40.640625 C12.93404174 46.52697873 12.98890983 53.24298077 10.40942383 58.953125 C6.87676617 65.04477495 1.4048284 68.98189485 -5.02807617 71.640625 C-7.87943318 71.95337266 -10.43688742 72.11874968 -13.27807617 72.078125 C-14.40632813 72.06458984 -14.40632813 72.06458984 -15.55737305 72.05078125 C-25.2977082 71.74875535 -32.25255175 68.52274614 -39.36401367 61.80078125 C-41.16392436 59.46427747 -41.65988543 58.24528731 -41.77807617 55.328125 C-41.02807617 51.640625 -41.02807617 51.640625 -40.02807617 49.640625 C-36.7340707 47.99362227 -33.56223067 47.90294569 -30.02807617 48.640625 C-27.69632491 50.0747317 -26.03299481 51.72683903 -24.02807617 53.640625 C-19.35248527 56.56162315 -14.36005363 56.13754006 -9.02807617 55.640625 C-5.82226909 54.77602318 -5.82226909 54.77602318 -4.02807617 52.640625 C-3.27807617 49.640625 -3.27807617 49.640625 -4.02807617 46.640625 C-6.64632609 44.29080132 -9.26355964 43.00444342 -12.54760742 41.80859375 C-13.40547852 41.48439453 -14.26334961 41.16019531 -15.1472168 40.82617188 C-16.92867944 40.16603597 -18.71251967 39.51227772 -20.4987793 38.86523438 C-27.40971138 36.23422134 -32.60168842 33.00625962 -36.96557617 26.953125 C-38.72989311 21.45260748 -39.22359115 15.86740849 -37.18432617 10.36328125 C-29.59121988 -3.00161191 -13.45328072 -6.28851974 0 0 Z " fill="#040404" transform="translate(152.028076171875,228.359375)"/>
<path d="M0 0 C2.5533364 1.59060301 4.43210268 3.19595687 6.3828125 5.484375 C6.9453125 8.421875 6.9453125 8.421875 6.3828125 11.484375 C4.3203125 14.421875 4.3203125 14.421875 1.3828125 16.484375 C-2.53268837 16.484375 -4.98606131 15.82854563 -8.41796875 13.95703125 C-14.70435644 11.06329723 -22.09094254 11.21269089 -28.57421875 13.55078125 C-35.37007281 17.29002929 -39.18373329 22.18401237 -41.6171875 29.484375 C-42.87271848 37.85987915 -40.51606412 44.66513875 -35.6171875 51.484375 C-30.83218577 56.03182346 -26.05289959 57.82772827 -19.4921875 58.109375 C-13.58751574 57.79780287 -8.23020757 56.3621811 -4.15234375 51.87109375 C-1.7395528 49.69160065 0.39083033 50.06378758 3.5078125 50.20703125 C5.3828125 50.484375 5.3828125 50.484375 7.3828125 51.546875 C9.0537911 54.78439604 8.9216892 56.89186366 8.3828125 60.484375 C4.4476458 67.73742735 -3.10629113 70.98074288 -10.6171875 73.484375 C-24.59587115 74.3944067 -34.35617778 73.02723122 -45.359375 63.6796875 C-53.25558462 56.00205808 -57.72624012 45.98302794 -58.1171875 34.984375 C-57.73339403 24.18698528 -53.34978167 14.66768911 -46.02734375 6.76953125 C-33.44123615 -4.86891648 -15.3738709 -7.09563272 0 0 Z " fill="#040404" transform="translate(99.6171875,137.515625)"/>
<path d="M0 0 C6.27 0 12.54 0 19 0 C19.0093457 2.51842529 19.01869141 5.03685059 19.02832031 7.6315918 C19.06209202 15.95376302 19.11764201 24.27568631 19.18390274 32.59765911 C19.22340692 37.6431629 19.25558099 42.6884914 19.27099609 47.73413086 C19.28614328 52.60376106 19.32055439 57.47290942 19.36830902 62.34232521 C19.38314282 64.19980493 19.39104216 66.05735344 19.39188385 67.9148922 C19.39424927 70.51759547 19.42129359 73.11896257 19.45410156 75.72143555 C19.4490712 76.4889212 19.44404083 77.25640686 19.43885803 78.04714966 C19.51000084 81.69644374 19.89556949 83.83289307 21.84661865 86.95491028 C23.91260397 89.20642494 23.91260397 89.20642494 27 90 C27 96.6 27 103.2 27 110 C18.09 110 9.18 110 0 110 C0 73.7 0 37.4 0 0 Z " fill="#799DAD" transform="translate(87,380)"/>
<path d="M0 0 C6.27 0 12.54 0 19 0 C19 36.3 19 72.6 19 110 C12.73 110 6.46 110 0 110 C0 73.7 0 37.4 0 0 Z " fill="#648994" transform="translate(406,380)"/>
<path d="M0 0 C5.25217333 3.99461071 8.73385788 8.46396904 10 15 C10.87033994 23.4950081 9.61699839 29.80009656 4.375 36.6875 C0.06462555 41.3782016 -4.66766995 43.5741291 -10.96484375 44.37890625 C-17.47465041 44.63338797 -22.75550268 44.03769901 -28 40 C-33.21756817 35.14404547 -36.6066312 30.72771021 -37.2109375 23.46484375 C-37.5022452 15.31943241 -36.3971162 9.29487707 -30.8125 3.1875 C-22.57197978 -4.34767298 -9.73360524 -5.80312194 0 0 Z " fill="#ECF3F4" transform="translate(169,152)"/>
<path d="M0 0 C5.99645699 3.36998952 9.4766741 8.61752231 11.625 15.0625 C12.37654113 21.998855 11.58008657 27.26602886 7.625 33.0625 C3.44907726 38.16640558 -1.49374208 41.55989106 -8.08984375 42.4140625 C-15.34297114 42.63294975 -19.80103662 41.18985916 -26 37.5 C-30.9263902 32.44396796 -33.65213812 26.57650459 -34 19.5 C-33.64166957 12.82373831 -31.28414578 7.75091293 -26.3671875 3.20703125 C-18.48692215 -2.91398667 -9.30270044 -4.10786924 0 0 Z " fill="#EAF1F2" transform="translate(221.375,242.9375)"/>
<path d="M0 0 C4.61632068 3.38273186 8.79655386 7.45216159 10.625 12.9375 C11.26506979 20.60784455 11.52143266 27.65231305 6.625 33.9375 C1.29096062 39.58753698 -3.75459827 42.20937241 -11.625 42.4375 C-18.40044192 42.33774831 -22.41886497 40.46453243 -27.375 35.9375 C-32.8763554 30.15402381 -33.84586488 24.72087525 -33.68359375 16.94140625 C-33.04883862 10.76258735 -30.51400973 6.72619856 -26 2.5625 C-18.86217233 -2.96743807 -8.07434126 -4.72038412 0 0 Z " fill="#EBF2F3" transform="translate(307.375,243.0625)"/>
<path d="M0 0 C4.0934628 0.65787795 5.029024 1.31282644 7.5 4.5625 C8.00793457 7.6361084 8.00793457 7.6361084 8.01757812 11.28710938 C8.02809204 12.28784233 8.02809204 12.28784233 8.03881836 13.30879211 C8.0563863 15.50837143 8.04478153 17.70665821 8.03125 19.90625 C8.0339453 21.4379501 8.03782804 22.96964853 8.04284668 24.50134277 C8.04874004 27.7092317 8.04018457 30.91667468 8.02148438 34.12451172 C7.99869424 38.23396043 8.01181829 42.34236422 8.03577423 46.4517746 C8.050237 49.61399186 8.04562418 52.77596188 8.03526306 55.93818665 C8.03259706 57.45323307 8.03586112 58.96830204 8.04518127 60.48332214 C8.0553556 62.60211532 8.03983731 64.71922285 8.01757812 66.83789062 C8.01439575 68.04272095 8.01121338 69.24755127 8.00793457 70.4888916 C7.39840764 74.17725461 6.47829985 75.36273847 3.5 77.5625 C0 78.125 0 78.125 -3.5 77.5625 C-6.23396129 74.91127038 -7.39029278 73.23447979 -8.00793457 69.45129395 C-8.01270813 67.70519836 -8.01270813 67.70519836 -8.01757812 65.92382812 C-8.0245874 65.27764023 -8.03159668 64.63145233 -8.03881836 63.96568298 C-8.05634547 61.84126109 -8.04479636 59.71818414 -8.03125 57.59375 C-8.03394648 56.11071519 -8.03783021 54.6276821 -8.04284668 53.14465332 C-8.0487345 50.04108803 -8.04020256 46.93798418 -8.02148438 43.83447266 C-7.99869444 39.86302204 -8.01182149 35.89265273 -8.03577423 31.92124176 C-8.05025207 28.86020816 -8.0456173 25.79942949 -8.03526306 22.73838806 C-8.03260122 21.27440766 -8.03584644 19.81040386 -8.04518127 18.34645081 C-8.05538065 16.29740399 -8.03980299 14.25009011 -8.01757812 12.20117188 C-8.01439575 11.03710815 -8.01121338 9.87304443 -8.00793457 8.67370605 C-7.16414073 3.50529134 -5.20980348 0.83728984 0 0 Z " fill="#050606" transform="translate(302.5,133.4375)"/>
<path d="M0 0 C2.375 1.5625 2.375 1.5625 4 4 C4.58560776 8.49682288 4.43266171 10.39230352 1.76953125 14.1328125 C0.80129866 15.1471514 -0.18506861 16.14444451 -1.1875 17.125 C-1.91163086 17.87330078 -1.91163086 17.87330078 -2.65039062 18.63671875 C-3.61313469 19.62660057 -4.58565928 20.60707178 -5.56811523 21.57739258 C-6.96592952 22.96615027 -8.31969695 24.39880159 -9.671875 25.83203125 C-12 28 -12 28 -15.0625 28.5625 C-18 28 -18 28 -20.375 26.4375 C-22.72165562 22.91751657 -22.7642966 21.16889057 -22 17 C-19.97491351 14.02788778 -17.50791386 11.56623744 -15 9 C-13.72164201 7.52733159 -12.45048938 6.04836985 -11.1875 4.5625 C-7.64663789 0.4220411 -5.58999342 -0.55899934 0 0 Z " fill="#050505" transform="translate(344,79)"/>
<path d="M0 0 C6.44233547 4.06728092 11.81562957 10.72344436 16 17 C16.42660463 20.91054241 16.58646281 23.12030578 14.375 26.4375 C11.24316508 28.49791771 9.68455227 28.6767545 6 28 C3.5625 25.9375 3.5625 25.9375 1 23 C-0.18113096 21.82688576 -1.36898018 20.66050757 -2.5625 19.5 C-9.84210056 12.12503349 -9.84210056 12.12503349 -10.5 7.4375 C-10 4 -10 4 -8.375 1.5625 C-5.17763048 -0.54103258 -3.77120647 -0.73945225 0 0 Z " fill="#050505" transform="translate(174,79)"/>
<path d="M0 0 C2.375 1 2.375 1 4 3 C4.78634981 6.44784147 5.01359577 7.73335711 4 11 C1.33061222 14.6704082 -1.80472537 17.78864178 -5 21 C-5.99578292 22.17360129 -6.97883238 23.35839037 -7.9375 24.5625 C-10.39710505 27.46930596 -11.1243831 27.90482425 -14.875 28.3125 C-18 28 -18 28 -20.375 26.4375 C-22 24 -22 24 -22.8125 20.875 C-21.52965584 14.75682014 -17.27629324 11.3623931 -13 7 C-12.00538584 5.82540804 -11.02257609 4.64048691 -10.0625 3.4375 C-6.89843848 -0.30184543 -4.80160618 -0.38412849 0 0 Z " fill="#050505" transform="translate(186,317)"/>
<path d="M0 0 C4.17887504 2.57161541 7.20851839 6.33518988 10.3515625 10.0546875 C11.66265079 11.60189596 13.03977065 13.09309223 14.4375 14.5625 C16.60994571 17.95151531 16.64505595 20.05799143 16 24 C13.9375 26.5 13.9375 26.5 11 28 C6.50691929 27.9893276 3.90174318 27.29971837 0.76171875 24.1640625 C-0.28026088 22.99957452 -1.30481744 21.81929044 -2.3125 20.625 C-2.83650391 20.03460938 -3.36050781 19.44421875 -3.90039062 18.8359375 C-7.92329096 14.26188436 -10.49718913 11.15443033 -10.3125 4.875 C-10 3 -10 3 -8.375 1 C-5.27953927 -0.30335189 -3.33425359 -0.47632194 0 0 Z " fill="#040404" transform="translate(332,317)"/>
<path d="M0 0 C2.5 1.4375 2.5 1.4375 4 4 C4.47228388 11.48036724 2.02756386 20.12761786 -2.25 26.1875 C-5 28 -5 28 -8.625 28.0625 C-12 27 -12 27 -14 25.5 C-16.63454546 18.91363636 -13.41399347 11.68749375 -11.1328125 5.3828125 C-8.54435848 -0.06186664 -5.97109029 -0.73329179 0 0 Z " fill="#050505" transform="translate(285,79)"/>
<path d="M0 0 C5.42874491 3.48990744 6.65858387 8.80056156 8.3359375 14.828125 C9.17470092 18.83445378 9.34263538 21.13992329 8 25 C5.75662843 27.57572291 4.36710755 27.93881541 1 28.5 C-2 28 -2 28 -4.046875 25.87109375 C-6.14213755 22.7910578 -7.1923053 20.12592383 -8.25 16.5625 C-8.58515625 15.47066406 -8.9203125 14.37882812 -9.265625 13.25390625 C-9.9970497 10.01307235 -10.2548232 7.30798262 -10 4 C-7.2247536 -0.05612936 -4.80517165 -0.88258255 0 0 Z " fill="#050505" transform="translate(233,79)"/>
<path d="M0 0 C3.74410169 2.94179418 4.92637815 5.86838275 6.25 10.375 C6.75273437 12.02628906 6.75273437 12.02628906 7.265625 13.7109375 C7.99485676 16.97696485 8.28656584 19.66925937 8 23 C5.9375 25.9375 5.9375 25.9375 3 28 C-0.625 28.125 -0.625 28.125 -4 27 C-6.44426695 23.58530448 -7.85593439 20.02658612 -9.1875 16.0625 C-9.53167969 15.06347656 -9.87585938 14.06445312 -10.23046875 13.03515625 C-11.03506887 9.86168268 -11.24826155 7.25958225 -11 4 C-8.05899778 -0.47032338 -5.13105401 -0.73300772 0 0 Z " fill="#050505" transform="translate(281,317)"/>
<path d="M0 0 C4.18428713 0.76854253 5.63177503 2.10055838 8.0625 5.5625 C8.12087205 8.36435855 7.82866001 9.92247874 7.0625 12.5625 C6.64871094 14.16351563 6.64871094 14.16351563 6.2265625 15.796875 C3.67661315 24.97669267 3.67661315 24.97669267 1.11328125 27.421875 C-1.81461912 29.0503453 -3.64477147 29.11128809 -6.9375 28.5625 C-9.73796855 26.05681761 -10.86042116 24.5730893 -11.1484375 20.796875 C-10.91917878 17.28157458 -10.21293103 14.30564653 -9.1875 10.9375 C-8.86265625 9.83148438 -8.5378125 8.72546875 -8.203125 7.5859375 C-6.40780853 3.29712594 -4.65100722 0.8906184 0 0 Z " fill="#040505" transform="translate(233.9375,316.4375)"/>
<path d="M0 0 C2.62605448 1.62426333 4.19826408 2.59768544 6 5 C6.72519457 8.14690492 6.5709442 11.10485302 6.375 14.3125 C6.25125 17.179375 6.1275 20.04625 6 23 C0.06 23 -5.88 23 -12 23 C-12.12375 20.133125 -12.2475 17.26625 -12.375 14.3125 C-12.42962402 13.41829346 -12.48424805 12.52408691 -12.54052734 11.6027832 C-12.6599018 5.87986907 -12.6599018 5.87986907 -10.74316406 3.32421875 C-7.18693071 0.24522884 -4.63619624 -0.96587422 0 0 Z " fill="#668B96" transform="translate(418,22)"/>
<path d="M0 0 C2.62605448 1.62426333 4.19826408 2.59768544 6 5 C6.72519457 8.14690492 6.5709442 11.10485302 6.375 14.3125 C6.25125 17.179375 6.1275 20.04625 6 23 C0.06 23 -5.88 23 -12 23 C-12.12375 20.133125 -12.2475 17.26625 -12.375 14.3125 C-12.42962402 13.41829346 -12.48424805 12.52408691 -12.54052734 11.6027832 C-12.6599018 5.87986907 -12.6599018 5.87986907 -10.74316406 3.32421875 C-7.18693071 0.24522884 -4.63619624 -0.96587422 0 0 Z " fill="#7A9FAF" transform="translate(100,22)"/>
</svg>
